<?xml version="1.0" encoding="UTF-8"?><svg id="Ebene_2" xmlns="http://www.w3.org/2000/svg" viewBox="0 0 125 28.33"><defs><style>.cls-1{fill:#4d4d4c;}.cls-2{fill:#8f1717;}</style></defs><g id="Ebene_1-2"><path class="cls-2" d="M61.28.24c0,.14-.11.24-.24.24s-.24-.11-.24-.24.11-.24.24-.24.24.11.24.24"/><path class="cls-2" d="M58.42.66c0,.13-.11.24-.24.24s-.24-.11-.24-.24.11-.24.24-.24.24.11.24.24"/><path class="cls-2" d="M64.13.66c0,.13-.11.24-.24.24s-.24-.11-.24-.24.11-.24.24-.24.24.11.24.24"/><path class="cls-1" d="M.57,27.18c.1.13.22.25.36.36.14.11.3.2.49.27.19.07.4.1.63.1s.45-.04.65-.12.35-.19.49-.34c.13-.14.24-.31.31-.5.07-.19.11-.4.11-.61,0-.33-.09-.6-.26-.79-.17-.2-.38-.36-.64-.49-.25-.13-.53-.25-.82-.36-.29-.11-.57-.24-.82-.41-.25-.16-.46-.37-.63-.62-.17-.25-.25-.59-.25-1.02,0-.3.05-.58.16-.83.11-.25.27-.47.47-.65.21-.18.45-.32.74-.42.29-.1.62-.15.98-.15s.65.04.9.13c.25.08.49.21.71.38-.07.12-.12.25-.16.39-.04.14-.09.31-.13.52h-.13c-.04-.1-.09-.21-.15-.33-.06-.12-.14-.23-.25-.33-.11-.1-.23-.19-.38-.25-.14-.07-.32-.1-.52-.1s-.39.03-.56.1c-.17.07-.32.16-.45.28-.13.12-.22.26-.29.43-.07.17-.1.35-.1.54,0,.34.09.61.25.8.17.2.38.36.63.49.25.13.53.25.82.36.29.11.57.23.82.39.25.15.47.35.64.59.17.24.25.56.25.96,0,.33-.06.65-.18.94-.12.3-.29.56-.52.78s-.51.39-.84.51c-.33.12-.7.18-1.12.18-.45,0-.81-.06-1.09-.18-.28-.12-.51-.25-.7-.41.06-.17.11-.32.14-.45.02-.13.05-.31.07-.52h.13c.06.13.14.26.23.4"/><path class="cls-1" d="M12.84,23.46c-.18.12-.34.28-.46.46-.12.19-.21.39-.27.61-.06.22-.1.43-.11.62.22,0,.46.01.7.02.24,0,.48.01.71.01s.48,0,.73-.01c.24,0,.48-.01.72-.02,0-.2-.02-.4-.05-.62s-.1-.42-.19-.61c-.1-.19-.23-.34-.41-.47-.17-.12-.4-.18-.69-.18-.27,0-.49.06-.68.18M11.65,23.68c.42-.51,1.04-.76,1.85-.76.38,0,.72.06.99.18s.51.28.7.48c.19.2.33.43.42.7.09.27.14.55.14.86,0,.07,0,.14,0,.21,0,.07,0,.14-.02.21-.39,0-.78-.01-1.16-.02-.38,0-.77-.01-1.16-.01-.24,0-.48,0-.71.01-.24,0-.47.01-.71.02,0,.04-.01.09-.01.16v.14c0,.28.04.55.12.79.08.24.2.46.36.63.16.18.35.32.59.42.23.11.5.16.8.16.15,0,.29-.02.45-.06.15-.04.3-.09.45-.16.14-.07.28-.15.41-.24.13-.09.24-.2.33-.3l.05.03-.07.53c-.22.17-.49.32-.81.44-.32.12-.66.18-1,.18-.39,0-.75-.06-1.07-.18s-.6-.29-.84-.52c-.23-.23-.42-.5-.54-.81-.13-.31-.19-.65-.19-1.01,0-.89.21-1.59.64-2.1"/><path class="cls-1" d="M25.8,23.91c-.21-.28-.5-.42-.87-.42-.51,0-.88.16-1.11.47-.23.31-.35.75-.35,1.31v.92c0,.33,0,.67.02,1.03.01.36.03.68.07.97-.17-.01-.33-.02-.49-.02s-.32,0-.49.02c.04-.29.06-.61.07-.97,0-.36.01-.7.01-1.03v-1.13c0-.33,0-.67-.01-1.03-.01-.36-.03-.69-.07-1,.2.04.36.05.49.05.06,0,.12,0,.19-.02.07-.01.15-.02.25-.04-.02.29-.03.58-.03.87h.02c.2-.31.45-.55.73-.72.28-.17.62-.25,1.01-.25.2,0,.41.03.61.09s.39.16.56.3c.17.14.3.33.41.58.11.24.16.55.16.93,0,.31,0,.63-.02.96-.01.33-.02.68-.02,1.05v.71c0,.12,0,.23,0,.34,0,.11,0,.22.02.32-.15-.01-.3-.02-.46-.02-.15,0-.3,0-.45.02.01-.38.03-.76.05-1.16.02-.4.03-.81.03-1.23v-.66c0-.54-.11-.95-.32-1.23"/><path class="cls-1" d="M34.57,24.04c-.01-.36-.03-.69-.07-1.01.2.04.37.06.49.06s.29-.02.49-.06c-.04.31-.06.65-.07,1.01-.01.36-.02.7-.02,1.03v1.13c0,.33,0,.67.02,1.03.01.36.03.68.07.97-.17-.02-.33-.02-.49-.02s-.32,0-.49.02c.04-.29.06-.61.07-.97.01-.36.02-.7.02-1.03v-1.13c0-.33,0-.67-.02-1.03M34.6,20.75c.11-.11.24-.16.39-.16s.28.06.39.16c.11.11.16.24.16.39s-.05.28-.16.39c-.11.11-.24.16-.39.16s-.28-.05-.39-.16c-.11-.11-.16-.24-.16-.39s.05-.28.16-.39"/><path class="cls-1" d="M43.61,26.51c.06.28.15.53.28.75.13.22.3.4.52.53.22.13.49.2.8.2s.59-.07.8-.2c.22-.13.39-.31.52-.53.13-.22.22-.47.28-.75.05-.28.08-.58.08-.88s-.03-.6-.08-.88-.15-.53-.28-.75c-.13-.22-.3-.4-.52-.53-.22-.13-.49-.2-.8-.2s-.59.07-.8.2c-.22.13-.39.31-.52.53-.13.22-.22.47-.28.75-.05.28-.08.58-.08.88s.03.6.08.88M42.8,24.37c.16-.34.36-.62.61-.84.25-.21.54-.37.85-.47.31-.1.63-.15.94-.15s.63.05.94.15c.31.1.59.25.85.47.25.21.46.49.61.84.15.34.23.76.23,1.25s-.08.91-.23,1.25c-.16.35-.36.62-.61.84-.25.21-.54.36-.85.45-.31.09-.63.13-.94.13s-.62-.04-.94-.13c-.31-.09-.6-.24-.85-.45-.25-.21-.46-.49-.61-.84-.16-.34-.23-.76-.23-1.25s.08-.91.23-1.25"/><path class="cls-1" d="M57.02,23.8c-.1-.04-.21-.05-.32-.05-.17,0-.33.04-.47.12-.14.08-.25.19-.35.32-.09.13-.17.29-.22.48-.05.18-.08.38-.08.59v1.2c0,.48,0,.86,0,1.11,0,.26.01.47.04.62-.14-.01-.29-.02-.43-.02-.16,0-.31,0-.46.02.02-.25.03-.58.04-1.01,0-.42,0-.94,0-1.56v-.35c0-.28,0-.61,0-.98,0-.37-.02-.79-.04-1.27.08.01.16.03.23.04.07.01.15.02.23.02.06,0,.13,0,.21-.02.07-.01.15-.02.23-.04-.03.26-.05.47-.05.62,0,.15,0,.3,0,.43h.02c.43-.77.9-1.16,1.43-1.16.07,0,.12,0,.17.01.05,0,.11.03.18.05-.04.09-.06.22-.06.4,0,.18-.01.34-.01.48l-.08.05s-.11-.08-.21-.12"/><path class="cls-1" d="M65.43,23.46c-.18.12-.34.28-.46.46-.12.19-.21.39-.27.61-.06.22-.1.43-.11.62.23,0,.46.01.7.02.24,0,.48.01.71.01s.48,0,.73-.01c.25,0,.48-.01.72-.02,0-.2-.02-.4-.05-.62-.03-.22-.1-.42-.2-.61-.1-.19-.23-.34-.41-.47-.17-.12-.4-.18-.68-.18-.27,0-.49.06-.68.18M64.24,23.68c.42-.51,1.04-.76,1.85-.76.38,0,.72.06.99.18s.51.28.7.48c.19.2.33.43.42.7.09.27.14.55.14.86,0,.07,0,.14,0,.21,0,.07,0,.14-.02.21-.39,0-.78-.01-1.16-.02s-.77-.01-1.16-.01c-.24,0-.48,0-.71.01-.24,0-.47.01-.71.02,0,.04-.01.09-.01.16v.14c0,.28.04.55.12.79.08.24.21.46.36.63.16.18.36.32.59.42.23.11.5.16.8.16.15,0,.29-.02.44-.06.15-.04.3-.09.45-.16.14-.07.28-.15.41-.24.13-.09.24-.2.33-.3l.05.03-.07.53c-.22.17-.49.32-.81.44-.32.12-.66.18-1,.18-.39,0-.75-.06-1.07-.18s-.6-.29-.84-.52c-.24-.23-.42-.5-.54-.81-.13-.31-.19-.65-.19-1.01,0-.89.21-1.59.63-2.1"/><path class="cls-1" d="M78.39,23.91c-.21-.28-.5-.42-.87-.42-.51,0-.88.16-1.11.47-.24.31-.35.75-.35,1.31v.92c0,.33,0,.67.02,1.03.01.36.04.68.07.97-.17-.01-.33-.02-.49-.02s-.32,0-.49.02c.04-.29.06-.61.07-.97.01-.36.01-.7.01-1.03v-1.13c0-.33,0-.67-.01-1.03-.01-.36-.04-.69-.07-1,.2.04.36.05.49.05.06,0,.12,0,.19-.02.07-.01.15-.02.24-.04-.02.29-.03.58-.03.87h.02c.2-.31.45-.55.73-.72.28-.17.62-.25,1.01-.25.2,0,.41.03.61.09s.39.16.56.3c.17.14.3.33.41.58.11.24.16.55.16.93,0,.31,0,.63-.02.96-.01.33-.02.68-.02,1.05v.71c0,.12,0,.23,0,.34,0,.11,0,.22.02.32-.15-.01-.3-.02-.46-.02-.15,0-.3,0-.45.02.01-.38.03-.76.05-1.16.02-.4.03-.81.03-1.23v-.66c0-.54-.11-.95-.32-1.23"/><path class="cls-1" d="M86.98,22.33c0-.29,0-.58-.02-.86,0-.28-.02-.55-.03-.81-.01-.26-.02-.48-.04-.66.2.04.36.06.49.06s.29-.02.49-.06c-.02.18-.03.4-.04.65-.01.25-.02.52-.03.8,0,.28-.01.56-.02.84,0,.28,0,.54,0,.78v.82h.02c.2-.31.45-.55.73-.72.28-.17.62-.25,1.01-.25.2,0,.41.03.62.09.21.06.39.16.56.3.17.14.3.33.41.58.11.24.16.55.16.93,0,.31,0,.63-.02.96-.01.33-.02.68-.02,1.05v.71c0,.11,0,.23,0,.34,0,.11,0,.22.02.32-.15-.01-.3-.02-.46-.02s-.3,0-.45.02c.01-.38.03-.76.05-1.16.02-.4.03-.81.03-1.23v-.66c0-.54-.1-.95-.32-1.23-.21-.28-.5-.42-.87-.42-.51,0-.88.16-1.11.47-.24.31-.35.75-.35,1.31,0,.2,0,.44,0,.7,0,.27,0,.54.02.81,0,.27.02.53.03.79.01.25.02.46.04.62-.17-.01-.33-.02-.49-.02s-.32,0-.49.02c.01-.17.03-.38.04-.63.01-.25.02-.52.03-.8,0-.28.01-.57.02-.86,0-.29,0-.56,0-.8v-1.97c0-.25,0-.51,0-.8"/><path class="cls-1" d="M100.98,25.6c-.16.03-.33.06-.49.09-.17.03-.33.08-.49.12-.16.05-.31.12-.43.21-.13.09-.23.2-.3.33-.08.13-.11.3-.11.5,0,.34.1.6.29.77.19.17.41.26.65.26.27,0,.52-.08.75-.23.23-.15.4-.33.53-.53l.04-1.63c-.12.04-.26.08-.43.11M99.62,23.05c.28-.09.56-.13.85-.13.26,0,.5.04.72.11.22.08.4.18.56.32.15.14.28.31.36.51.09.2.13.42.13.66,0,.41,0,.82-.02,1.23-.01.41-.02.84-.02,1.3,0,.09,0,.18,0,.28,0,.1.02.18.05.26.03.08.07.14.12.19.05.05.14.08.24.08.04,0,.07,0,.11,0,.04,0,.08-.02.11-.04v.24c-.08.04-.18.07-.3.09-.12.02-.25.03-.4.03-.24,0-.42-.06-.54-.18-.12-.12-.2-.27-.22-.46-.26.26-.52.45-.77.57-.25.12-.56.18-.93.18-.18,0-.36-.03-.53-.08-.17-.05-.33-.13-.46-.25-.13-.12-.24-.26-.33-.42s-.12-.35-.12-.56c0-.43.14-.77.41-1.01.27-.24.64-.4,1.12-.48.39-.07.69-.12.91-.17s.38-.1.49-.15c.1-.05.17-.11.19-.18.02-.07.03-.16.03-.27,0-.18-.02-.35-.06-.52-.04-.17-.11-.31-.21-.43-.09-.12-.22-.22-.37-.3-.15-.08-.34-.11-.55-.11-.29,0-.56.06-.81.19-.25.13-.44.31-.56.54h-.12v-.56c.33-.25.63-.41.9-.5"/><path class="cls-1" d="M109.76,25.57c.01-.27.02-.54.02-.81,0-.25,0-.53,0-.83s-.01-.6-.02-.9c.18.04.33.06.46.06.12,0,.26-.02.45-.06-.04.43-.06.91-.08,1.43-.02.52-.03,1.05-.03,1.59,0,.38.03.66.1.86.06.2.14.35.24.45.1.12.23.21.39.29.16.08.34.11.55.11.3,0,.56-.07.76-.2.2-.13.35-.3.44-.49.05-.12.09-.23.12-.31.03-.09.05-.2.07-.35.02-.14.03-.34.03-.59,0-.25,0-.58,0-1.01v-.91c0-.16,0-.31,0-.46,0-.14-.01-.28-.02-.41.08.02.15.03.23.04.07.01.15.02.23.02s.15,0,.23-.02c.07,0,.14-.02.22-.04-.04.57-.06,1.11-.07,1.64,0,.53-.01,1.08-.01,1.67,0,.33,0,.64.01.96,0,.31.02.61.03.9-.14-.01-.29-.02-.42-.02s-.28,0-.42.02c0-.07.01-.13.02-.21,0-.07,0-.15,0-.23v-.47h-.02c-.19.35-.43.6-.73.77-.3.16-.62.24-.97.24-.56,0-1.01-.15-1.33-.45-.32-.3-.48-.73-.48-1.3,0-.38,0-.71.02-.98"/><path class="cls-1" d="M121.59,27.42c.08.09.17.17.27.24.1.08.22.14.36.19.13.05.28.08.43.08.14,0,.27-.02.4-.06.13-.04.24-.11.34-.19.1-.08.18-.18.23-.3.06-.12.09-.26.09-.42,0-.22-.06-.4-.19-.52-.13-.12-.28-.22-.47-.29-.19-.08-.39-.14-.62-.2-.22-.06-.43-.14-.62-.24-.19-.11-.35-.24-.47-.42-.13-.17-.19-.41-.19-.72,0-.24.04-.46.12-.66.08-.2.19-.37.35-.52s.34-.26.57-.34c.22-.08.48-.12.77-.12.27,0,.49.04.68.11.18.07.36.14.53.2-.06.11-.11.24-.16.4-.05.16-.08.28-.1.37h-.13c-.06-.17-.17-.33-.34-.47-.17-.14-.37-.21-.62-.21-.11,0-.22.02-.33.05-.11.04-.21.09-.29.16-.09.07-.16.17-.22.28-.06.12-.09.25-.09.41,0,.23.06.41.19.54.13.13.28.23.47.3.19.07.39.14.62.19.22.05.43.13.62.23.19.1.35.23.47.41.13.17.19.41.19.72,0,.21-.04.42-.14.62-.09.2-.22.38-.39.55-.17.16-.38.29-.61.38-.24.09-.51.13-.81.13-.33,0-.61-.03-.84-.1-.22-.07-.41-.14-.56-.23.04-.09.09-.22.14-.38.05-.16.07-.3.07-.41h.13c.04.07.09.15.17.24"/><path class="cls-2" d="M3.36,10.82c.24,0,.49,0,.75.01.26,0,.51.01.75.01.26,0,.52,0,.77,0,.26,0,.52-.01.77-.02l-1.53-3.51-1.51,3.51ZM9.48,15.12c-.13-.02-.25-.03-.37-.03h-.73c-.11,0-.24,0-.37.03-.06-.21-.15-.47-.26-.77-.11-.3-.23-.61-.37-.94-.13-.33-.27-.66-.41-.99-.14-.34-.27-.66-.39-.96-.3-.01-.59-.02-.9-.02-.3,0-.61,0-.91,0-.29,0-.57,0-.84,0-.28,0-.56.01-.84.02-.29.72-.56,1.4-.8,2.05-.24.65-.42,1.19-.54,1.61-.16-.02-.33-.03-.51-.03s-.35,0-.51.03c.75-1.61,1.47-3.21,2.18-4.81.71-1.59,1.42-3.22,2.14-4.86h.26c.22.53.46,1.11.72,1.73s.52,1.25.79,1.89c.27.64.53,1.27.8,1.89.27.63.52,1.21.75,1.75.23.54.45,1.02.64,1.44s.34.75.46.97"/><path class="cls-2" d="M15.47,11.53c-1.2-1.29-2.4-2.56-3.59-3.84,0,.26-.02.6-.03,1.04,0,.43-.01,1.02-.01,1.77,0,.19,0,.43,0,.72,0,.29,0,.59.01.9,0,.31.01.63.02.95,0,.32.02.62.03.9,0,.28.02.52.03.72,0,.21.02.35.03.42-.15-.02-.31-.03-.48-.03-.18,0-.35,0-.51.03.02-.09.04-.26.06-.51.02-.25.04-.55.06-.89.02-.35.04-.72.06-1.13.02-.4.04-.81.05-1.22s.03-.8.03-1.19c0-.39.01-.73.01-1.04,0-.88,0-1.64,0-2.28,0-.64-.01-1.11-.03-1.42h.22c.56.61,1.16,1.26,1.8,1.96.64.69,1.28,1.38,1.91,2.06.63.68,1.23,1.32,1.8,1.92.57.6,1.06,1.12,1.49,1.54v-1.88c0-.97,0-1.91-.02-2.83s-.04-1.78-.09-2.59c.18.05.34.07.47.07.11,0,.26-.02.44-.07-.02.2-.04.51-.06.91-.02.41-.05.84-.07,1.3-.02.46-.04.91-.06,1.35-.02.44-.03.8-.03,1.07v.83c0,.31,0,.64,0,.98,0,.34,0,.68.01,1.03,0,.34,0,.67.01.97,0,.3,0,.56,0,.78v.46h-.19c-1.06-1.22-2.19-2.48-3.39-3.77"/><path class="cls-2" d="M26.22,11.53c-1.2-1.29-2.4-2.56-3.59-3.84-.01.26-.02.6-.03,1.04-.01.43-.01,1.02-.01,1.77,0,.19,0,.43,0,.72,0,.29,0,.59.01.9,0,.31.01.63.02.95,0,.32.02.62.03.9,0,.28.02.52.03.72,0,.21.02.35.03.42-.15-.02-.31-.03-.48-.03-.18,0-.35,0-.51.03.02-.09.04-.26.06-.51.02-.25.04-.55.06-.89.02-.35.04-.72.06-1.13.02-.4.04-.81.06-1.22s.03-.8.03-1.19c0-.39.01-.73.01-1.04,0-.88,0-1.64,0-2.28,0-.64-.01-1.11-.03-1.42h.22c.56.61,1.16,1.26,1.8,1.96.64.69,1.28,1.38,1.91,2.06.63.68,1.23,1.32,1.8,1.92.57.6,1.06,1.12,1.49,1.54v-1.88c0-.97,0-1.91-.02-2.83s-.04-1.78-.09-2.59c.18.05.34.07.47.07.11,0,.26-.02.44-.07-.02.2-.04.51-.06.91-.02.41-.05.84-.07,1.3-.02.46-.04.91-.06,1.35-.02.44-.03.8-.03,1.07v.83c0,.31,0,.64,0,.98,0,.34,0,.68.01,1.03,0,.34,0,.67.01.97,0,.3,0,.56,0,.78v.46h-.19c-1.06-1.22-2.19-2.48-3.39-3.77"/><path class="cls-2" d="M33.83,10.82c.24,0,.49,0,.75.01.26,0,.51.01.75.01.26,0,.52,0,.77,0,.26,0,.52-.01.77-.02l-1.53-3.51-1.51,3.51ZM39.96,15.12c-.13-.02-.25-.03-.37-.03h-.73c-.12,0-.24,0-.37.03-.06-.21-.15-.47-.26-.77-.11-.3-.23-.61-.37-.94-.13-.33-.27-.66-.41-.99-.14-.34-.27-.66-.39-.96-.29-.01-.59-.02-.9-.02-.3,0-.61,0-.91,0-.29,0-.57,0-.84,0-.28,0-.56.01-.84.02-.29.72-.56,1.4-.8,2.05-.24.65-.42,1.19-.54,1.61-.16-.02-.33-.03-.51-.03s-.35,0-.51.03c.75-1.61,1.47-3.21,2.18-4.81.71-1.59,1.42-3.22,2.14-4.86h.26c.22.53.46,1.11.72,1.73.26.62.52,1.25.79,1.89.27.64.53,1.27.8,1.89.27.63.52,1.21.75,1.75.24.54.45,1.02.64,1.44.19.42.34.75.46.97"/><path class="cls-2" d="M46.04,12.02c-.07,1.03-.15,2.06-.22,3.1-.11-.02-.22-.03-.33-.03h-.64c-.11,0-.21,0-.33.03.3-1.59.56-3.16.79-4.73.23-1.57.44-3.15.64-4.77.1.02.19.03.28.05.09.01.18.02.28.02.08,0,.17,0,.26-.02.09-.01.19-.03.29-.05.25.55.51,1.11.78,1.69.27.57.54,1.14.81,1.71.27.57.54,1.12.82,1.67.27.54.53,1.06.78,1.55.55-1.03,1.1-2.11,1.65-3.24.55-1.13,1.07-2.25,1.57-3.36.23.05.43.07.59.07.16,0,.35-.02.58-.07.09.79.19,1.65.3,2.56.11.91.21,1.8.31,2.67.1.87.2,1.68.3,2.44.1.76.19,1.36.28,1.82-.18-.02-.37-.03-.56-.03h-1.13c-.19,0-.39,0-.58.03-.05-.95-.12-1.98-.23-3.08-.11-1.11-.22-2.2-.33-3.29h-.03c-.53,1.09-1.04,2.15-1.55,3.21-.51,1.05-1.01,2.11-1.51,3.16-.05,0-.09-.02-.13-.02-.04,0-.09,0-.13,0s-.09,0-.13,0c-.04,0-.09.01-.13.02-.5-1.03-.99-2.06-1.49-3.1s-1-2.08-1.53-3.14h-.03c-.15,1.06-.26,2.11-.33,3.14"/><path class="cls-2" d="M60.45,8.22c-.24.55-.47,1.1-.68,1.64-.21.54-.42,1.09-.62,1.65h2.53c-.2-.56-.4-1.11-.6-1.65-.2-.54-.41-1.09-.63-1.64M65.35,15.12c-.22-.02-.43-.03-.63-.03h-1.18c-.2,0-.39,0-.59.03-.15-.45-.3-.91-.46-1.38-.16-.47-.32-.94-.5-1.41-.29-.01-.59-.02-.88-.02-.3,0-.59,0-.88,0-.24,0-.48,0-.72,0-.24,0-.48.01-.72.02-.18.47-.35.94-.51,1.41-.16.47-.3.93-.43,1.38-.11-.02-.22-.03-.33-.03h-.66c-.11,0-.23,0-.36.03.11-.24.26-.57.44-.99.18-.42.39-.9.61-1.44.22-.53.46-1.11.71-1.72.25-.61.51-1.23.76-1.86.25-.63.5-1.24.75-1.85s.47-1.18.67-1.7c.09.02.18.03.26.05.08.01.17.02.26.02s.18,0,.26-.02c.08-.01.17-.03.26-.05.29.78.61,1.62.95,2.52.34.89.67,1.77,1.02,2.63.34.86.67,1.68.99,2.45.32.77.62,1.43.89,1.96"/><path class="cls-2" d="M70.87,7.26c-.08-.24-.21-.42-.38-.55-.17-.12-.39-.2-.66-.24-.27-.04-.6-.06-.97-.06-.03,1.25-.04,2.51-.04,3.76.06,0,.11.02.16.02.05,0,.1,0,.15,0,.61,0,1.07-.16,1.4-.49.32-.33.48-.82.48-1.48,0-.41-.04-.73-.12-.97M68.81,10.77v.57c0,.76,0,1.44.03,2.04.02.59.05,1.18.08,1.75-.16-.02-.33-.03-.51-.03h-1.24c-.18,0-.35,0-.51.03.04-.57.06-1.15.08-1.75.02-.59.03-1.27.03-2.04v-1.88c0-.77,0-1.44-.03-2.04-.02-.59-.05-1.19-.08-1.79.16.02.33.03.51.05.18.01.39.02.62.02.25,0,.53-.01.85-.03.32-.02.71-.03,1.18-.03.35,0,.65,0,.9.03.25.02.46.05.64.08.18.04.34.08.47.15.13.06.26.13.38.22.28.2.49.45.66.75.16.3.24.66.24,1.07,0,.67-.18,1.22-.55,1.64-.37.42-.9.72-1.59.9.44.78.92,1.56,1.42,2.34.51.78,1.01,1.55,1.52,2.31-.21-.02-.42-.03-.62-.03h-1.25c-.21,0-.42,0-.63.03l-2.47-4.35h-.12Z"/><path class="cls-2" d="M82,6.68c-.44-.25-.98-.38-1.62-.38-.42,0-.85.09-1.27.27-.42.18-.79.45-1.12.81-.33.36-.59.81-.79,1.35-.2.54-.3,1.17-.3,1.9,0,.55.08,1.06.23,1.53.15.47.37.88.66,1.22.28.35.63.61,1.05.81.42.19.89.29,1.42.29.12,0,.26,0,.41-.02s.3-.03.44-.05c.14-.02.27-.04.39-.08.12-.03.21-.07.26-.1.02-.11.03-.25.03-.41,0-.17,0-.35,0-.55,0-.75-.01-1.3-.04-1.65s-.05-.6-.06-.73c.09.02.21.03.37.05.15.01.37.02.66.02.33,0,.58,0,.74-.02s.29-.03.38-.05c-.02.07-.03.19-.05.36-.01.16-.03.36-.03.57,0,.22-.02.45-.02.69,0,.24,0,.48,0,.7v.46c0,.23,0,.44,0,.64,0,.2.02.34.03.42-.61.18-1.22.31-1.84.41-.62.1-1.24.15-1.85.15-.79,0-1.52-.1-2.19-.31-.67-.21-1.24-.51-1.73-.91-.48-.4-.86-.88-1.13-1.45s-.41-1.21-.41-1.91c0-.88.14-1.64.43-2.3.29-.66.69-1.21,1.2-1.65.51-.44,1.12-.77,1.82-.99.7-.22,1.46-.33,2.27-.33.7,0,1.31.07,1.82.21.51.14,1.02.35,1.51.61-.07.24-.14.48-.21.71-.07.23-.13.47-.17.7h-.19c-.3-.41-.66-.75-1.11-1"/><path class="cls-2" d="M88.87,8.22c-.24.55-.47,1.1-.68,1.64-.21.54-.42,1.09-.62,1.65h2.53c-.2-.56-.4-1.11-.6-1.65-.2-.54-.41-1.09-.63-1.64M93.76,15.12c-.22-.02-.43-.03-.63-.03h-1.18c-.2,0-.39,0-.59.03-.15-.45-.3-.91-.46-1.38-.16-.47-.32-.94-.5-1.41-.29-.01-.59-.02-.88-.02-.3,0-.59,0-.89,0-.24,0-.48,0-.72,0-.24,0-.48.01-.72.02-.18.47-.35.94-.51,1.41-.16.47-.3.93-.43,1.38-.11-.02-.22-.03-.33-.03h-.66c-.11,0-.23,0-.36.03.11-.24.26-.57.44-.99.18-.42.39-.9.61-1.44s.46-1.11.71-1.72c.25-.61.51-1.23.76-1.86.25-.63.5-1.24.75-1.85.24-.61.47-1.18.67-1.7.09.02.18.03.26.05.08.01.17.02.26.02s.18,0,.26-.02c.08-.01.17-.03.26-.05.3.78.61,1.62.95,2.52.34.89.68,1.77,1.02,2.63.34.86.67,1.68.99,2.45.32.77.62,1.43.89,1.96"/><path class="cls-2" d="M99.29,7.26c-.08-.24-.21-.42-.38-.55-.17-.12-.39-.2-.66-.24-.27-.04-.6-.06-.97-.06-.03,1.25-.04,2.51-.04,3.76.06,0,.11.02.16.02.05,0,.1,0,.15,0,.61,0,1.07-.16,1.4-.49.32-.33.48-.82.48-1.48,0-.41-.04-.73-.12-.97M97.23,10.77v.57c0,.76,0,1.44.03,2.04.02.59.05,1.18.08,1.75-.16-.02-.33-.03-.51-.03h-1.24c-.18,0-.35,0-.51.03.04-.57.06-1.15.08-1.75.02-.59.03-1.27.03-2.04v-1.88c0-.77,0-1.44-.03-2.04-.02-.59-.05-1.19-.08-1.79.16.02.33.03.51.05.18.01.39.02.62.02.25,0,.53-.01.85-.03.32-.02.71-.03,1.18-.03.35,0,.65,0,.9.03.25.02.46.05.64.08.18.04.34.08.47.15.13.06.26.13.38.22.28.2.49.45.66.75.16.3.24.66.24,1.07,0,.67-.18,1.22-.55,1.64-.37.42-.9.72-1.59.9.44.78.92,1.56,1.42,2.34.51.78,1.01,1.55,1.52,2.31-.21-.02-.42-.03-.62-.03h-1.25c-.21,0-.42,0-.63.03l-2.47-4.35h-.12Z"/><path class="cls-2" d="M103.47,7.42c-.02-.59-.04-1.19-.07-1.79.42,0,.82.02,1.23.04.41.02.82.03,1.23.03.68,0,1.29,0,1.82-.02.53-.01.89-.03,1.07-.05-.04.15-.06.34-.06.58,0,.15,0,.26.01.34.01.08.02.18.04.28-.27-.02-.56-.04-.88-.06-.32-.02-.63-.04-.93-.06-.3-.02-.57-.03-.81-.04-.24-.01-.41-.01-.51-.01-.04.51-.06,1.01-.06,1.51,0,.5,0,1,0,1.51.6,0,1.14-.02,1.62-.04.48-.02.99-.04,1.51-.07-.03.16-.05.28-.06.36,0,.08-.01.17-.01.26,0,.07,0,.15.02.23.01.08.03.19.05.34-1.05-.08-2.1-.12-3.14-.12,0,.3,0,.59,0,.89,0,.3,0,.59,0,.88,0,.6.01,1.17.04,1.73.53,0,1.05-.01,1.57-.04.53-.03,1.06-.07,1.59-.14-.02.1-.03.19-.04.28,0,.08-.01.2-.01.35s0,.26.01.35c.01.08.02.15.04.21-.25,0-.56-.02-.92-.02-.36,0-.86,0-1.5,0h-2.19c-.21,0-.36,0-.47,0-.11,0-.2.01-.27.02.03-.57.06-1.15.07-1.75.02-.6.02-1.27.02-2.04v-1.88c0-.76,0-1.44-.02-2.04"/><path class="cls-2" d="M112.16,7.15c0-.22-.02-.38-.04-.48-.14,0-.31,0-.51.01-.2,0-.42.02-.65.03-.23.01-.47.03-.71.06-.24.02-.46.05-.66.08.02-.1.04-.2.05-.3.01-.1.02-.2.02-.3s0-.2-.02-.3c-.01-.1-.03-.2-.05-.3.31,0,.6.02.85.03.25,0,.51.02.77.02.26,0,.55,0,.86.01.31,0,.68,0,1.11,0s.8,0,1.11,0c.31,0,.59,0,.85-.01.26,0,.51-.01.75-.02.24,0,.51-.02.79-.03-.02.1-.03.2-.05.3-.01.1-.02.2-.02.3s0,.2.02.3c.01.1.03.2.05.3-.18-.03-.39-.05-.62-.08-.23-.02-.46-.04-.68-.06-.23-.01-.44-.02-.64-.03-.2,0-.37-.01-.51-.01,0,.05-.02.11-.02.19,0,.08,0,.18,0,.29v4.19c0,.76,0,1.44.03,2.04.02.59.05,1.18.08,1.75-.16-.02-.33-.03-.51-.03h-1.24c-.18,0-.35,0-.51.03.04-.57.06-1.15.08-1.75.02-.59.03-1.27.03-2.04v-3.45c0-.27,0-.51,0-.73"/><path class="cls-2" d="M120.1,8.22c-.24.55-.47,1.1-.68,1.64-.21.54-.42,1.09-.62,1.65h2.53c-.2-.56-.4-1.11-.6-1.65-.2-.54-.41-1.09-.63-1.64M125,15.12c-.22-.02-.43-.03-.63-.03h-1.18c-.2,0-.39,0-.59.03-.15-.45-.3-.91-.46-1.38-.16-.47-.32-.94-.5-1.41-.29-.01-.59-.02-.88-.02-.29,0-.59,0-.88,0-.24,0-.48,0-.72,0-.24,0-.48.01-.72.02-.18.47-.35.94-.51,1.41-.16.47-.3.93-.43,1.38-.11-.02-.22-.03-.33-.03h-.66c-.11,0-.23,0-.36.03.11-.24.26-.57.44-.99.18-.42.39-.9.61-1.44s.46-1.11.71-1.72c.25-.61.51-1.23.76-1.86.25-.63.5-1.24.75-1.85.24-.61.47-1.18.67-1.7.09.02.18.03.26.05.08.01.17.02.26.02s.18,0,.26-.02c.08-.01.17-.03.26-.05.3.78.61,1.62.95,2.52.34.89.67,1.77,1.02,2.63.34.86.67,1.68.99,2.45.32.77.62,1.43.89,1.96"/><path class="cls-2" d="M61.04,1.35s.17.43.69.66c0,0-.53.03-.69.07-.17-.05-.69-.07-.69-.07.53-.23.69-.66.69-.66M59.07,2.23s-.51.12-.67.19h0l.07.45c.43-.22,1.41-.38,2.56-.38s2.16.16,2.58.4l.07-.46h-.01c-.16-.08-.67-.19-.67-.19.55-.13.79-.52.8-.53l.11-.66c-1.75,1.88-2.86-.43-2.86-.43,0,0-1.11,2.31-2.86.43l.11.67s.26.39.79.52"/><path class="cls-2" d="M61.03,2.93c-1.42,0-2.25.25-2.29.39.05.13.87.38,2.29.38s2.25-.25,2.29-.39c-.05-.13-.87-.38-2.29-.38M61.03,3.96c-.95,0-2.55-.14-2.55-.64s1.6-.64,2.55-.64,2.55.14,2.55.64-1.6.64-2.55.64"/></g></svg>