<?xml version="1.0" encoding="UTF-8"?><svg id="Ebene_2" xmlns="http://www.w3.org/2000/svg" viewBox="0 0 122.77 24.2"><defs><style>.cls-1{fill:#8c0d9e;}.cls-2{fill:#0090d8;}</style></defs><g id="Ebene_1-2"><rect class="cls-2" x="113.14" y="5.3" width="4.5" height="4.56"/><rect class="cls-2" x="118.27" y="5.3" width="4.5" height="4.56"/><path class="cls-2" d="M113.13,4.66h1.98c-.35-.35-.58-.85-.58-1.4,0-1.06.8-1.91,1.8-1.91.51,0,.96.22,1.29.59V0h-4.5v4.66Z"/><path class="cls-2" d="M122.77,4.66h-1.98c.35-.35.58-.85.58-1.4,0-1.06-.8-1.91-1.8-1.91-.51,0-.96.22-1.29.59V0h4.5v4.66Z"/><path class="cls-2" d="M116.34,1.85c-.71,0-1.29.63-1.29,1.4s.57,1.4,1.28,1.4h1.31v-1.4c0-.77-.58-1.4-1.29-1.4"/><path class="cls-2" d="M120.86,3.25c0-.77-.58-1.4-1.29-1.4s-1.29.63-1.29,1.4v1.4h1.31c.71,0,1.28-.63,1.28-1.4"/><path class="cls-2" d="M2.95,7.23h1.15c1.84,0,2.11-1.49,2.11-2.39,0-.6-.19-2.28-2.32-2.28h-.94v4.67ZM0,.1h4.84c3.19,0,4.32,2.36,4.32,4.78,0,2.94-1.56,4.8-4.9,4.8H0V.1Z"/><path class="cls-2" d="M10.59,9.68h2.66V2.72h-2.66v6.96ZM10.59,1.97h2.66V.1h-2.66v1.86Z"/><path class="cls-2" d="M19.13,6.56c-.32.16-.68.26-1.05.34-.59.13-.9.28-.9.75,0,.32.35.64.83.64.6,0,1.07-.36,1.11-1.09v-.64ZM21.68,8.13c0,.52.03,1.11.32,1.56h-2.71c-.07-.19-.11-.47-.09-.66h-.03c-.56.64-1.38.83-2.24.83-1.34,0-2.45-.64-2.45-2.11,0-2.2,2.57-2.12,3.93-2.37.36-.07.72-.17.72-.62,0-.47-.44-.64-.87-.64-.82,0-.98.42-.99.71h-2.47c.04-.98.52-1.56,1.21-1.88.67-.32,1.56-.4,2.37-.4,3.33,0,3.3,1.38,3.3,2.72v2.86Z"/><polygon class="cls-2" points="23.28 .1 23.28 9.68 25.94 9.68 25.94 7.67 26.41 7.16 27.83 9.68 31.02 9.68 28.15 5.35 30.63 2.72 27.63 2.72 25.94 4.73 25.94 .1 23.28 .1"/><path class="cls-2" d="M35.06,4.48c-1.01,0-1.14.98-1.14,1.72s.13,1.73,1.14,1.73,1.14-.99,1.14-1.73-.13-1.72-1.14-1.72M35.06,9.86c-2.62,0-3.8-1.73-3.8-3.66s1.18-3.65,3.8-3.65,3.8,1.72,3.8,3.65-1.18,3.66-3.8,3.66"/><path class="cls-2" d="M40.15,2.72h2.56v.89h.03c.5-.7,1.21-1.06,2.27-1.06,1.25,0,2.39.76,2.39,2.36v4.77h-2.66v-3.65c0-.81-.09-1.37-.87-1.37-.46,0-1.06.23-1.06,1.34v3.68h-2.66V2.72Z"/><path class="cls-2" d="M49.03,9.68h2.66V2.72h-2.66v6.96ZM49.03,1.97h2.66V.1h-2.66v1.86Z"/><path class="cls-2" d="M58.12,5.42c0-.64-.48-1.17-1.17-1.17-.79,0-1.25.42-1.37,1.17h2.54ZM55.58,6.8c.07.79.52,1.35,1.35,1.35.43,0,.9-.16,1.11-.5h2.48c-.54,1.5-2,2.2-3.58,2.2-2.23,0-3.9-1.31-3.9-3.64,0-2.03,1.47-3.67,3.67-3.67,2.76,0,3.96,1.54,3.96,4.25h-5.1Z"/><path class="cls-2" d="M65.95,4.75c-.01-.23-.13-.4-.31-.52-.16-.13-.38-.2-.59-.2-.38,0-.8.08-.8.54,0,.2.16.3.31.36.44.19,1.45.24,2.33.54.88.28,1.66.81,1.66,1.94,0,1.93-1.85,2.45-3.54,2.45s-3.43-.66-3.47-2.45h2.54c.01.24.12.44.32.62.13.12.39.2.71.2.35,0,.9-.13.9-.54s-.23-.52-1.46-.74c-2.03-.35-2.84-.99-2.84-2.19,0-1.76,1.89-2.21,3.29-2.21,1.5,0,3.31.42,3.38,2.2h-2.41Z"/><path class="cls-2" d="M72.95,2.72h1.42v1.64h-1.42v2.43c0,.64.15.93.82.93.2,0,.4-.01.6-.04v2.01c-.54,0-1.14.08-1.7.08-1.13,0-2.37-.17-2.37-2.08v-3.33h-1.18v-1.64h1.18V.6h2.66v2.12Z"/><path class="cls-2" d="M79.59,6.56c-.32.16-.68.26-1.05.34-.59.13-.9.28-.9.75,0,.32.35.64.83.64.6,0,1.07-.36,1.11-1.09v-.64ZM82.14,8.13c0,.52.03,1.11.32,1.56h-2.71c-.07-.19-.11-.47-.09-.66h-.03c-.56.64-1.38.83-2.24.83-1.34,0-2.45-.64-2.45-2.11,0-2.2,2.58-2.12,3.93-2.37.36-.07.72-.17.72-.62,0-.47-.44-.64-.87-.64-.82,0-.98.42-.99.71h-2.47c.04-.98.52-1.56,1.21-1.88.67-.32,1.56-.4,2.37-.4,3.33,0,3.3,1.38,3.3,2.72v2.86Z"/><path class="cls-2" d="M86.88,2.72h1.42v1.64h-1.42v2.43c0,.64.15.93.82.93.2,0,.4-.01.6-.04v2.01c-.54,0-1.14.08-1.7.08-1.13,0-2.37-.17-2.37-2.08v-3.33h-1.18v-1.64h1.18V.6h2.66v2.12Z"/><path class="cls-2" d="M89.34,9.68h2.65V2.72h-2.65v6.96ZM89.34,1.97h2.65V.1h-2.65v1.86Z"/><path class="cls-2" d="M97.14,4.48c-1.01,0-1.14.98-1.14,1.72s.13,1.73,1.14,1.73,1.14-.99,1.14-1.73-.13-1.72-1.14-1.72M97.14,9.86c-2.62,0-3.8-1.73-3.8-3.66s1.18-3.65,3.8-3.65,3.8,1.72,3.8,3.65-1.18,3.66-3.8,3.66"/><path class="cls-2" d="M102.23,2.72h2.56v.89h.03c.5-.7,1.21-1.06,2.27-1.06,1.25,0,2.39.76,2.39,2.36v4.77h-2.66v-3.65c0-.81-.09-1.37-.87-1.37-.46,0-1.06.23-1.06,1.34v3.68h-2.66V2.72Z"/><path class="cls-1" d="M42.72,21.32h1.67c2.36.01,3.39-.99,3.39-3.45s-1.03-3.46-3.39-3.45h-1.67v6.9ZM41.93,13.76h2.85c2.48.06,3.78,1.42,3.78,4.12s-1.3,4.06-3.78,4.12h-2.85v-8.23Z"/><path class="cls-1" d="M49.94,21.99h.73v-5.95h-.73v5.95ZM49.94,14.92h.73v-1.16h-.73v1.16Z"/><path class="cls-1" d="M56.57,18.6c-.03-1.1-.72-2.12-1.89-2.12s-1.85,1.04-1.96,2.12h3.85ZM52.72,19.21c.01,1.06.56,2.34,1.96,2.34,1.06,0,1.64-.62,1.87-1.52h.73c-.31,1.35-1.1,2.14-2.6,2.14-1.89,0-2.69-1.45-2.69-3.15,0-1.57.8-3.15,2.69-3.15s2.68,1.67,2.62,3.34h-4.58Z"/><path class="cls-1" d="M61.32,16.48c-1.6,0-2.09,1.19-2.09,2.54,0,1.23.54,2.54,2.09,2.54,1.38,0,1.95-1.3,1.95-2.54s-.57-2.54-1.95-2.54M58.51,16.04h.67v1.13h.02c.33-.81,1.16-1.3,2.12-1.3,1.81,0,2.68,1.47,2.68,3.15s-.86,3.15-2.68,3.15c-.89,0-1.75-.45-2.06-1.3h-.02v3.33h-.73v-8.15Z"/><path class="cls-1" d="M65.35,13.76h.73v3.31h.02c.26-.71,1.06-1.2,1.9-1.2,1.67,0,2.18.88,2.18,2.3v3.83h-.73v-3.71c0-1.03-.33-1.8-1.51-1.8s-1.85.88-1.87,2.04v3.47h-.73v-8.23Z"/><path class="cls-1" d="M72.21,19.02c0,1.27.69,2.54,2.09,2.54s2.09-1.27,2.09-2.54-.69-2.54-2.09-2.54-2.09,1.27-2.09,2.54M77.12,19.02c0,1.71-.99,3.15-2.81,3.15s-2.81-1.44-2.81-3.15.99-3.15,2.81-3.15,2.81,1.44,2.81,3.15"/><rect class="cls-1" x="78.44" y="13.76" width=".73" height="8.23"/><polygon class="cls-1" points="81.15 21.38 85.25 21.38 85.25 21.99 80.28 21.99 80.28 21.41 84.17 16.65 80.54 16.65 80.54 16.04 85.09 16.04 85.09 16.56 81.15 21.38"/></g></svg>