<?xml version="1.0" encoding="UTF-8"?><svg id="Ebene_2" xmlns="http://www.w3.org/2000/svg" xmlns:xlink="http://www.w3.org/1999/xlink" viewBox="0 0 187.09 95.9"><defs><style>.cls-1{fill:none;}.cls-2{fill:#98cd2d;}.cls-3{fill:#7bb0e7;}.cls-4{fill:#8f1717;}.cls-5{fill:#0090d8;}.cls-6{fill:#6f6f6e;}.cls-7{clip-path:url(#clippath);}</style><clipPath id="clippath"><rect class="cls-1" width="187.09" height="95.9"/></clipPath></defs><g id="Ebene_1-2"><g class="cls-7"><path class="cls-6" d="M185.63,92.77c-.47-1.13-.96-2.33-1.45-3.58-.5-1.26-.99-2.54-1.48-3.85-.49-1.31-.95-2.53-1.38-3.67-.13.03-.26.05-.38.07-.12.02-.25.03-.38.03s-.26-.01-.38-.03c-.12-.02-.25-.04-.38-.07-.3.77-.62,1.59-.98,2.48-.36.89-.72,1.79-1.09,2.71-.37.91-.74,1.82-1.11,2.72-.37.9-.72,1.73-1.04,2.51-.32.78-.62,1.48-.89,2.1-.27.62-.48,1.1-.65,1.45.19-.03.36-.04.52-.04h.96c.15,0,.31.01.47.04.19-.66.4-1.33.63-2.02.23-.69.48-1.37.75-2.06.35-.01.7-.02,1.05-.03.35,0,.7-.01,1.05-.01.43,0,.86,0,1.29.01.43,0,.86.02,1.29.03.26.69.5,1.37.73,2.06.23.69.45,1.36.67,2.02.28-.03.57-.04.86-.04h1.72c.29,0,.6.01.92.04-.39-.78-.82-1.74-1.29-2.87M180.7,87.96c.29.79.58,1.59.88,2.41h-3.69c.3-.82.6-1.63.91-2.41.31-.79.64-1.59.99-2.39.32.81.63,1.61.92,2.39M167.79,85.06v5.05c0,1.12-.01,2.11-.04,2.98-.03.87-.07,1.72-.12,2.55.23-.03.48-.04.75-.04h1.82c.27,0,.52.01.75.04-.05-.83-.09-1.69-.12-2.55-.03-.87-.04-1.86-.04-2.98v-6.12c0-.16,0-.3.01-.42,0-.12.02-.22.03-.28.2,0,.45,0,.75.02.3.01.61.03.94.05.33.02.66.05,1,.08.34.03.64.07.91.11-.03-.15-.05-.3-.07-.45-.02-.15-.03-.3-.03-.44s.01-.3.03-.44c.02-.15.04-.3.07-.44-.42.01-.8.03-1.16.04-.36.01-.72.02-1.1.03s-.79.01-1.24.02c-.45,0-.99.01-1.63.01s-1.17,0-1.62-.01c-.45,0-.87-.01-1.25-.02-.38,0-.76-.02-1.13-.03-.37-.01-.78-.03-1.24-.04.03.15.05.3.07.44.02.15.03.3.03.44s0,.3-.03.44c-.02.15-.04.3-.07.45.3-.04.62-.08.97-.11.35-.03.69-.06,1.03-.08.34-.02.65-.04.95-.05.3-.01.54-.02.75-.02.03.15.04.38.05.71,0,.32.01.68.01,1.07M154.72,87.36v2.75c0,1.12-.01,2.11-.04,2.98-.03.87-.07,1.72-.12,2.55.11-.01.24-.02.39-.03.15,0,.38,0,.69,0h3.2c.93,0,1.66,0,2.19,0,.53,0,.98.02,1.34.03-.03-.08-.05-.18-.06-.3-.01-.12-.02-.29-.02-.51s0-.38.02-.5c.01-.12.03-.26.06-.4-.78.09-1.56.16-2.32.2-.77.04-1.53.06-2.3.06-.04-.81-.06-1.65-.06-2.52,0-.43,0-.86.01-1.29,0-.43,0-.86,0-1.29,1.52,0,3.05.06,4.58.18-.03-.22-.05-.38-.07-.49-.02-.12-.03-.23-.03-.33,0-.13,0-.26.02-.38.01-.12.04-.3.08-.53-.77.04-1.5.07-2.21.1-.71.03-1.5.05-2.37.06,0-.74,0-1.47,0-2.2,0-.73.04-1.46.09-2.2.15,0,.4,0,.75.02.35.01.74.03,1.18.06.44.03.89.05,1.35.08.46.03.89.05,1.28.08-.03-.15-.05-.28-.06-.4s-.02-.29-.02-.51c0-.35.03-.63.08-.85-.27.03-.79.05-1.57.07-.77.02-1.66.03-2.65.03-.61,0-1.21-.01-1.8-.04-.59-.03-1.19-.05-1.8-.06.05.88.09,1.75.12,2.61.03.87.04,1.86.04,2.98M145.34,89.28l3.61,6.36c.31-.03.62-.04.92-.04h1.83c.3,0,.6.01.91.04-.74-1.12-1.48-2.24-2.22-3.38-.74-1.14-1.43-2.28-2.08-3.42,1.01-.26,1.78-.69,2.32-1.31.54-.62.81-1.42.81-2.4,0-.6-.12-1.13-.35-1.56-.24-.44-.55-.8-.96-1.1-.18-.12-.36-.23-.55-.31-.2-.09-.42-.16-.69-.21-.26-.05-.57-.09-.94-.12-.36-.03-.8-.04-1.31-.04-.69,0-1.26.02-1.73.05-.46.03-.88.05-1.24.05-.34,0-.64-.01-.91-.03-.27-.02-.52-.04-.75-.07.05.88.09,1.75.12,2.61.03.87.04,1.86.04,2.98v2.75c0,1.12-.01,2.11-.04,2.98-.03.87-.07,1.72-.12,2.55.23-.03.48-.04.75-.04h1.82c.27,0,.52.01.75.04-.05-.83-.09-1.69-.12-2.55-.03-.87-.04-1.86-.04-2.98v-.83h.18ZM147.64,87.73c-.47.48-1.15.72-2.04.72-.07,0-.14,0-.21,0-.07,0-.15-.02-.23-.03,0-1.83.02-3.66.06-5.49.55,0,1.03.03,1.42.08.4.05.72.17.97.35.25.18.43.45.56.8.12.35.18.82.18,1.41,0,.97-.24,1.69-.71,2.17M138.39,92.77c-.47-1.13-.96-2.33-1.45-3.58-.5-1.26-.99-2.54-1.48-3.85-.49-1.31-.95-2.53-1.38-3.67-.13.03-.26.05-.38.07-.12.02-.25.03-.38.03s-.26-.01-.38-.03c-.12-.02-.25-.04-.38-.07-.3.77-.62,1.59-.98,2.48-.36.89-.72,1.79-1.09,2.71-.37.91-.74,1.82-1.11,2.72-.37.9-.72,1.73-1.04,2.51-.32.78-.62,1.48-.89,2.1-.27.62-.48,1.1-.65,1.45.19-.03.36-.04.53-.04h.96c.15,0,.31.01.47.04.19-.66.4-1.33.63-2.02.23-.69.48-1.37.75-2.06.35-.01.7-.02,1.05-.03.35,0,.7-.01,1.05-.01.43,0,.86,0,1.29.01.43,0,.86.02,1.29.03.26.69.5,1.37.73,2.06.23.69.45,1.36.67,2.02.28-.03.57-.04.86-.04h1.72c.29,0,.6.01.92.04-.39-.78-.82-1.74-1.29-2.87M133.46,87.96c.29.79.58,1.59.88,2.41h-3.7c.3-.82.6-1.63.91-2.41.31-.79.64-1.59.99-2.39.32.81.63,1.61.92,2.39M123.71,84.78h.28c.07-.35.15-.69.25-1.03.1-.34.2-.68.31-1.03-.73-.39-1.46-.69-2.21-.9-.75-.21-1.63-.31-2.65-.31-1.19,0-2.29.16-3.31.48-1.02.32-1.91.81-2.65,1.44s-1.33,1.44-1.76,2.4c-.42.96-.64,2.08-.64,3.36,0,1.04.2,1.97.6,2.8.4.83.95,1.53,1.66,2.12.71.59,1.55,1.03,2.52,1.33.98.3,2.04.45,3.2.45.89,0,1.79-.07,2.7-.22.91-.15,1.81-.35,2.69-.61-.03-.12-.04-.33-.05-.62,0-.29-.01-.6-.01-.94v-.67c0-.32,0-.66.01-1.02,0-.36.02-.69.03-1.01.01-.32.03-.6.05-.84.02-.24.04-.42.07-.53-.14.03-.32.05-.56.07-.24.02-.6.03-1.08.03-.42,0-.74,0-.96-.03-.22-.02-.4-.04-.54-.07.01.19.04.54.08,1.06.04.52.06,1.32.06,2.41,0,.3,0,.56,0,.81,0,.24-.02.44-.05.61-.08.05-.21.1-.38.15-.17.05-.37.09-.58.11-.21.03-.42.05-.65.07-.22.02-.42.03-.6.03-.78,0-1.47-.14-2.08-.42-.61-.28-1.12-.68-1.53-1.18-.42-.5-.74-1.1-.96-1.79-.22-.69-.33-1.43-.33-2.24,0-1.06.15-1.99.44-2.78.3-.79.68-1.44,1.16-1.97.48-.52,1.02-.92,1.64-1.18.61-.26,1.23-.39,1.85-.39.93,0,1.72.18,2.36.55.65.37,1.18.86,1.62,1.46M102.62,89.28l3.61,6.36c.31-.03.62-.04.92-.04h1.83c.29,0,.6.01.91.04-.74-1.12-1.48-2.24-2.22-3.38-.74-1.14-1.43-2.28-2.08-3.42,1.01-.26,1.78-.69,2.32-1.31.54-.62.81-1.42.81-2.4,0-.6-.12-1.13-.35-1.56-.24-.44-.56-.8-.96-1.1-.18-.12-.36-.23-.56-.31-.2-.09-.42-.16-.69-.21-.26-.05-.57-.09-.94-.12-.36-.03-.8-.04-1.31-.04-.69,0-1.26.02-1.73.05-.46.03-.88.05-1.24.05-.34,0-.64-.01-.91-.03-.27-.02-.52-.04-.75-.07.05.88.09,1.75.12,2.61.03.87.04,1.86.04,2.98v2.75c0,1.12-.01,2.11-.04,2.98-.03.87-.07,1.72-.12,2.55.23-.03.48-.04.75-.04h1.82c.27,0,.52.01.75.04-.05-.83-.1-1.69-.12-2.55-.03-.87-.04-1.86-.04-2.98v-.83h.18ZM104.92,87.73c-.47.48-1.15.72-2.04.72-.07,0-.14,0-.21,0-.07,0-.15-.02-.23-.03,0-1.83.02-3.66.06-5.49.55,0,1.03.03,1.42.08.4.05.72.17.97.35.25.18.43.45.56.8.12.35.18.82.18,1.41,0,.97-.24,1.69-.71,2.17M95.67,92.77c-.47-1.13-.96-2.33-1.45-3.58-.5-1.26-.99-2.54-1.48-3.85-.49-1.31-.95-2.53-1.38-3.67-.14.03-.26.05-.38.07-.12.02-.25.03-.38.03s-.26-.01-.38-.03c-.12-.02-.25-.04-.38-.07-.3.77-.62,1.59-.98,2.48-.36.89-.72,1.79-1.09,2.71-.37.91-.74,1.82-1.11,2.72-.37.9-.72,1.73-1.04,2.51-.32.78-.62,1.48-.89,2.1-.27.62-.48,1.1-.65,1.45.19-.03.36-.04.53-.04h.96c.15,0,.31.01.47.04.19-.66.4-1.33.62-2.02.23-.69.48-1.37.75-2.06.35-.01.7-.02,1.05-.03.35,0,.7-.01,1.05-.01.43,0,.86,0,1.29.01.43,0,.86.02,1.29.03.26.69.5,1.37.73,2.06.23.69.45,1.36.67,2.02.28-.03.57-.04.86-.04h1.72c.29,0,.6.01.92.04-.39-.78-.82-1.74-1.29-2.87M90.74,87.96c.29.79.58,1.59.88,2.41h-3.69c.3-.82.6-1.63.91-2.41.31-.79.64-1.59.99-2.39.32.81.63,1.61.92,2.39M68.84,86.53h.04c.77,1.55,1.51,3.08,2.23,4.58.72,1.51,1.44,3.02,2.17,4.52.07-.01.13-.02.19-.03.06,0,.12,0,.19,0s.13,0,.19,0c.06,0,.12.02.19.03.73-1.55,1.46-3.09,2.2-4.62.74-1.53,1.49-3.1,2.26-4.68h.04c.16,1.59.32,3.19.47,4.81.15,1.61.27,3.12.33,4.5.28-.03.57-.04.85-.04h1.65c.28,0,.55.01.82.04-.12-.67-.26-1.56-.4-2.66-.15-1.1-.3-2.29-.44-3.56-.15-1.27-.3-2.57-.45-3.91-.15-1.33-.3-2.58-.43-3.73-.34.07-.62.1-.85.1-.24,0-.53-.03-.87-.1-.73,1.63-1.49,3.27-2.29,4.92-.8,1.65-1.6,3.23-2.41,4.73-.36-.71-.74-1.47-1.14-2.26-.4-.79-.79-1.61-1.19-2.43-.4-.83-.79-1.66-1.19-2.49-.4-.83-.78-1.65-1.14-2.46-.15.03-.29.05-.42.07-.14.02-.26.03-.38.03-.15,0-.29-.01-.41-.03-.13-.02-.27-.04-.41-.07-.28,2.36-.59,4.68-.93,6.96-.34,2.29-.72,4.59-1.15,6.91.16-.03.32-.04.47-.04h.94c.16,0,.32.01.48.04.11-1.51.21-3.02.32-4.52.11-1.51.27-3.03.49-4.58M57.43,92.77c-.47-1.13-.96-2.33-1.45-3.58-.5-1.26-.99-2.54-1.48-3.85-.49-1.31-.95-2.53-1.38-3.67-.13.03-.26.05-.38.07-.12.02-.25.03-.38.03s-.26-.01-.38-.03c-.12-.02-.25-.04-.38-.07-.3.77-.62,1.59-.98,2.48-.36.89-.72,1.79-1.09,2.71-.37.91-.74,1.82-1.11,2.72-.37.9-.72,1.73-1.04,2.51-.32.78-.62,1.48-.89,2.1-.27.62-.48,1.1-.65,1.45.19-.03.36-.04.53-.04h.96c.15,0,.31.01.47.04.19-.66.4-1.33.63-2.02.23-.69.48-1.37.75-2.06.35-.01.7-.02,1.05-.03.35,0,.7-.01,1.05-.01.43,0,.86,0,1.29.01.43,0,.86.02,1.29.03.26.69.5,1.37.73,2.06.23.69.45,1.36.67,2.02.28-.03.57-.04.86-.04h1.72c.29,0,.6.01.92.04-.39-.78-.82-1.74-1.29-2.87M52.5,87.96c.29.79.58,1.59.88,2.41h-3.69c.3-.82.6-1.63.91-2.41.31-.79.64-1.59.99-2.39.32.81.63,1.61.92,2.39M31.72,88.99c-.03,1.11-.07,2.14-.12,3.09-.05.95-.09,1.75-.13,2.41-.04.66-.07,1.04-.1,1.15.31-.03.62-.04.93-.04h.46c.16,0,.32.01.49.04-.01-.15-.03-.35-.04-.6-.01-.25-.03-.57-.04-.96-.01-.39-.02-.87-.03-1.43,0-.56,0-1.25,0-2.06v-2.34c0-.4,0-.8,0-1.19,0-.39.02-.78.03-1.17,3.11,3.27,6.05,6.52,8.82,9.75.23-.03.49-.04.79-.04s.56.01.83.04v-2.42c0-.97,0-1.88.01-2.73,0-.86.02-1.72.05-2.6.03-.87.06-1.81.1-2.8.04-.99.09-2.1.16-3.32-.38.07-.68.1-.91.1s-.53-.03-.91-.1c.03.14.05.4.07.79.02.39.03.86.04,1.39,0,.54.01,1.13.02,1.77,0,.64,0,1.29,0,1.95v3.72c-1.51-1.63-2.98-3.23-4.41-4.81-1.43-1.57-2.88-3.18-4.35-4.8-.38.07-.68.1-.91.1s-.53-.03-.91-.1c.01.48.03,1.04.06,1.68.03.63.04,1.41.04,2.34,0,1.02-.02,2.09-.05,3.2M15.61,88.99c-.03,1.11-.07,2.14-.12,3.09-.05.95-.09,1.75-.13,2.41-.04.66-.07,1.04-.1,1.15.31-.03.62-.04.93-.04h.46c.16,0,.32.01.48.04-.01-.15-.03-.35-.04-.6-.01-.25-.03-.57-.04-.96-.01-.39-.02-.87-.03-1.43,0-.56,0-1.25,0-2.06v-2.34c0-.4,0-.8,0-1.19,0-.39.02-.78.03-1.17,3.11,3.27,6.05,6.52,8.82,9.75.23-.03.49-.04.79-.04s.56.01.83.04v-2.42c0-.97,0-1.88,0-2.73,0-.86.02-1.72.05-2.6.03-.87.06-1.81.1-2.8.04-.99.09-2.1.16-3.32-.38.07-.68.1-.91.1s-.53-.03-.91-.1c.03.14.05.4.07.79.02.39.03.86.04,1.39,0,.54.01,1.13.02,1.77s.01,1.29.01,1.95v3.72c-1.51-1.63-2.98-3.23-4.41-4.81-1.43-1.57-2.88-3.18-4.35-4.8-.38.07-.68.1-.91.1s-.53-.03-.91-.1c.01.48.03,1.04.06,1.68.03.63.04,1.41.04,2.34,0,1.02-.02,2.09-.05,3.2M11.7,92.77c-.47-1.13-.96-2.33-1.45-3.58-.5-1.26-.99-2.54-1.48-3.85-.49-1.31-.95-2.53-1.38-3.67-.14.03-.26.05-.38.07-.12.02-.25.03-.38.03s-.26-.01-.38-.03c-.12-.02-.25-.04-.38-.07-.3.77-.62,1.59-.98,2.48-.36.89-.72,1.79-1.09,2.71-.37.91-.74,1.82-1.11,2.72-.37.9-.72,1.73-1.04,2.51-.32.78-.62,1.48-.89,2.1-.27.62-.49,1.1-.65,1.45.19-.03.36-.04.53-.04h.96c.16,0,.31.01.47.04.19-.66.4-1.33.63-2.02.23-.69.48-1.37.75-2.06.35-.01.7-.02,1.05-.03.35,0,.7-.01,1.05-.01.43,0,.86,0,1.29.01.43,0,.86.02,1.29.03.25.69.5,1.37.73,2.06.23.69.45,1.36.67,2.02.28-.03.57-.04.86-.04h1.72c.29,0,.6.01.92.04-.39-.78-.82-1.74-1.29-2.87M6.77,87.96c.29.79.58,1.59.88,2.41h-3.69c.3-.82.6-1.63.91-2.41.31-.79.64-1.59.99-2.39.32.81.63,1.61.92,2.39"/><path class="cls-6" d="M178.9,67.87c0-.54,0-1.08.02-1.61.01-.53.04-1.03.07-1.52.31-.04.67-.08,1.06-.11.39-.03.82-.05,1.27-.05.62,0,1.2.06,1.72.19.52.13.98.35,1.35.68.38.33.68.77.89,1.34.22.56.32,1.28.32,2.16,0,1-.14,1.81-.41,2.44-.28.63-.63,1.12-1.07,1.49-.44.36-.93.61-1.49.74-.55.13-1.11.2-1.66.2-.38,0-.76-.01-1.12-.04-.36-.02-.65-.06-.86-.11-.06-1.05-.09-2.11-.09-3.2v-2.6ZM177.66,70.47c0,.67-.01,1.32-.04,1.96-.03.64-.05,1.28-.08,1.9.34-.02.68-.03,1.01-.03h1.01c.34,0,.68,0,1.01.01s.67.02,1.01.02c.59,0,1.22-.09,1.87-.26.65-.18,1.24-.48,1.78-.9s.98-.98,1.33-1.67c.35-.69.52-1.54.52-2.55,0-.77-.09-1.47-.28-2.09-.19-.62-.48-1.14-.88-1.57-.4-.43-.92-.76-1.55-.99-.63-.23-1.39-.35-2.27-.35-.38,0-.76.01-1.14.04-.38.02-.76.04-1.14.04s-.76,0-1.14-.02c-.38-.01-.76-.03-1.14-.05.03.66.06,1.32.08,1.96.02.64.04,1.29.04,1.96v2.6ZM174.11,74.54h.21v-.5c0-.24,0-.53,0-.85,0-.33-.01-.68-.02-1.06,0-.38-.01-.75-.02-1.12,0-.37,0-.73,0-1.07v-.91c0-.29.01-.68.03-1.16.02-.48.04-.98.07-1.48.02-.5.05-.98.08-1.42.03-.44.05-.77.07-1-.2.05-.36.08-.48.08-.14,0-.31-.02-.51-.08.05.89.08,1.83.1,2.83.01,1,.02,2.03.02,3.09v2.05c-.46-.46-1-1.02-1.62-1.68-.62-.66-1.28-1.36-1.96-2.1-.69-.74-1.38-1.49-2.08-2.25-.7-.76-1.36-1.47-1.97-2.14h-.24c.02.34.03.86.04,1.56,0,.7,0,1.53,0,2.49,0,.33,0,.71-.01,1.13-.01.42-.02.86-.04,1.3-.02.44-.04.89-.06,1.33-.02.44-.05.85-.07,1.23-.02.38-.04.7-.07.97-.02.27-.05.46-.07.56.17-.02.36-.03.56-.03s.37.01.53.03c-.01-.08-.02-.23-.03-.46-.01-.23-.02-.49-.03-.79,0-.3-.02-.63-.03-.98,0-.35-.02-.7-.02-1.04,0-.34-.01-.67-.02-.98,0-.31,0-.57,0-.78,0-.82,0-1.46.01-1.93,0-.47.02-.85.03-1.13,1.31,1.39,2.62,2.79,3.93,4.19,1.31,1.4,2.54,2.78,3.7,4.12M161.41,69.9c-.01.37-.05.74-.11,1.12-.06.37-.16.73-.29,1.07-.14.34-.32.65-.57.91-.24.26-.55.47-.93.63-.38.16-.84.24-1.4.24s-1.04-.07-1.42-.2c-.38-.14-.7-.32-.95-.56-.25-.24-.45-.51-.58-.83-.14-.32-.23-.65-.29-1-.06-.35-.1-.7-.11-1.07,0-.37-.01-.72-.01-1.07,0-.56,0-1.11.01-1.63,0-.52.02-1.01.04-1.47.02-.45.04-.86.06-1.22.02-.36.04-.65.06-.87-.11.02-.22.04-.32.05-.1.01-.21.02-.32.02-.12,0-.25,0-.39-.02-.14-.01-.27-.03-.39-.05.02.45.04,1.01.06,1.66.02.65.03,1.4.03,2.25,0,.38-.01.76-.04,1.12-.02.37-.04.79-.04,1.26,0,1.48.34,2.56,1.03,3.25.69.69,1.78,1.03,3.29,1.03.69,0,1.29-.1,1.82-.29.53-.19.97-.47,1.34-.85.36-.37.64-.83.84-1.36.2-.53.3-1.14.31-1.81.01-.55.03-1.12.05-1.71.02-.59.04-1.16.06-1.72.02-.56.05-1.08.08-1.57.03-.49.06-.91.09-1.26-.17.05-.32.08-.45.08-.1,0-.2,0-.3-.02s-.21-.03-.32-.05c.04.29.07.83.08,1.6,0,.78.01,1.88.01,3.31,0,.31,0,.66-.01,1.03M144.02,70.46c0,.66-.01,1.32-.04,1.96-.02.64-.05,1.28-.08,1.93.24-.02.49-.03.73-.03h.73c.24,0,.49,0,.73.01.25.01.49.02.73.02.44,0,.89-.05,1.34-.14.45-.1.86-.26,1.23-.5.37-.24.68-.55.91-.93.23-.38.35-.86.35-1.42,0-.87-.26-1.49-.78-1.89-.52-.39-1.23-.61-2.12-.65v-.03c.76-.17,1.37-.47,1.84-.89s.7-1.01.7-1.75c0-.42-.09-.78-.26-1.06-.17-.28-.4-.51-.7-.67-.29-.17-.63-.28-1.01-.35-.38-.07-.79-.1-1.22-.1-.26,0-.53.01-.8.04-.27.02-.54.04-.8.04s-.53,0-.8-.02c-.27-.01-.54-.03-.8-.05.03.64.06,1.29.08,1.93.02.64.04,1.3.04,1.96v2.6ZM145.26,68.6v-1.13c0-.48,0-.96.03-1.43.02-.47.04-.95.06-1.43.14-.02.3-.04.48-.05.18-.01.4-.02.66-.02.29,0,.58.02.88.07.29.05.55.14.79.27.23.14.42.33.57.57s.23.58.23.99-.08.77-.25,1.05c-.17.28-.38.5-.66.67s-.58.28-.93.35c-.35.07-.7.11-1.05.11h-.82ZM145.26,69.16h.68c.5,0,.96.03,1.37.09.41.06.76.17,1.05.32.29.16.52.37.67.65.16.28.23.63.23,1.07,0,.4-.07.76-.2,1.08-.13.32-.31.58-.53.8-.22.22-.48.38-.78.49-.3.11-.61.17-.93.17-.27,0-.54,0-.8-.02-.26-.01-.49-.03-.68-.05-.02-.51-.04-1.02-.06-1.53-.02-.5-.03-1.01-.03-1.53v-1.54ZM135.73,67.87c0-.54,0-1.09.03-1.63.02-.54.04-1.09.06-1.65.16-.02.36-.04.59-.05.23-.01.52-.02.88-.02.26,0,.53.03.8.08.27.06.52.16.76.31.23.15.42.35.57.61s.22.58.22.97c0,.45-.09.83-.28,1.13-.19.3-.42.53-.7.71-.28.18-.59.3-.93.37-.34.07-.66.1-.97.1-.2,0-.39,0-.55-.01s-.32-.03-.46-.06v-.86ZM134.49,70.47c0,.67-.01,1.32-.04,1.96-.03.64-.05,1.28-.08,1.9.23-.02.48-.03.74-.03s.51.01.74.03c-.03-.62-.06-1.26-.08-1.9-.02-.65-.04-1.3-.04-1.96v-1.1h.57c.32.33.68.74,1.07,1.22.39.48.77.96,1.14,1.44.37.48.71.94,1.02,1.36.31.42.54.74.69.95.14-.02.29-.03.44-.03h.89c.15,0,.3.01.45.03-.14-.14-.33-.35-.56-.62-.23-.27-.48-.57-.74-.9-.26-.33-.53-.67-.82-1.03-.28-.36-.55-.7-.82-1.03-.26-.33-.5-.63-.71-.9-.21-.27-.38-.48-.5-.64.29-.04.62-.12.98-.25.36-.13.69-.3,1-.53.31-.23.58-.51.79-.86.22-.35.32-.76.32-1.25,0-.45-.08-.83-.25-1.13s-.39-.55-.68-.73c-.29-.19-.62-.32-1-.4-.38-.08-.79-.12-1.21-.12-.29,0-.58.01-.86.04-.28.02-.57.04-.86.04s-.58,0-.86-.02-.57-.03-.86-.05c.03.66.06,1.32.08,1.96.02.64.04,1.29.04,1.96v2.6ZM126.63,67.86v2.6c0,.66-.01,1.32-.04,1.96-.03.64-.05,1.28-.08,1.93.46-.02.92-.03,1.37-.03h2.74c.45,0,.9.01,1.35.03-.03-.1-.04-.23-.04-.39,0-.07,0-.15,0-.23,0-.08.02-.16.04-.23-.24.05-.53.09-.85.11-.33.03-.68.05-1.04.06-.37.01-.74.02-1.12.02h-1.06c-.01-.19-.02-.47-.02-.84,0-.37,0-.85,0-1.42v-1.5c0-.16,0-.29,0-.4,0-.11,0-.2,0-.3.18,0,.43,0,.73,0,.31,0,.64.01.98.02.35,0,.69.02,1.04.04.35.02.65.05.91.08-.03-.15-.04-.3-.04-.45,0-.16.01-.32.04-.47-.22.02-.46.04-.7.05-.25.01-.52.03-.81.05-.29.01-.62.03-.97.04-.35.01-.75.01-1.19.01,0-.19,0-.47,0-.85,0-.37,0-.76,0-1.15s0-.7.02-1,.03-.6.04-.92c.49,0,.92,0,1.27.02.35.01.68.03.97.05.3.02.58.04.85.06.27.02.56.04.88.06-.03-.15-.05-.3-.05-.45s.01-.3.05-.45c-.45.02-.9.04-1.35.05-.44.01-.89.02-1.34.02s-.9,0-1.35-.02-.9-.03-1.35-.05c.03.64.06,1.29.08,1.93.03.64.04,1.3.04,1.96M119.74,74.31c.17,0,.34.01.5.03.67-1.72,1.36-3.44,2.08-5.17.72-1.72,1.48-3.46,2.26-5.21-.22.05-.41.08-.56.08s-.34-.02-.56-.08c-.11.33-.25.73-.41,1.18-.16.45-.34.94-.54,1.47-.2.52-.4,1.07-.61,1.64-.21.57-.43,1.13-.64,1.68-.22.55-.43,1.08-.64,1.59-.21.51-.41.97-.59,1.38-.32-.76-.64-1.54-.95-2.31-.31-.78-.62-1.54-.91-2.3-.3-.76-.58-1.5-.85-2.23-.27-.73-.51-1.43-.73-2.09-.14.02-.28.04-.41.05-.13.01-.26.02-.38.02s-.25,0-.38-.02-.27-.03-.41-.05c.36.87.74,1.78,1.14,2.75.4.97.78,1.91,1.16,2.84.38.93.73,1.81,1.07,2.64s.61,1.55.85,2.15c.13-.02.3-.03.5-.03M104.85,67.87c0-.54,0-1.09.03-1.63.02-.54.04-1.09.06-1.65.16-.02.36-.04.59-.05.23-.01.52-.02.88-.02.26,0,.53.03.8.08.27.06.52.16.76.31.23.15.42.35.57.61.15.26.22.58.22.97,0,.45-.09.83-.28,1.13-.19.3-.42.53-.7.71-.28.18-.59.3-.93.37-.34.07-.66.1-.97.1-.2,0-.38,0-.55-.01-.17-.01-.32-.03-.46-.06v-.86ZM103.61,70.47c0,.67-.01,1.32-.04,1.96-.03.64-.05,1.28-.08,1.9.23-.02.48-.03.74-.03s.51.01.74.03c-.03-.62-.06-1.26-.08-1.9-.03-.65-.04-1.3-.04-1.96v-1.1h.57c.32.33.68.74,1.07,1.22.39.48.77.96,1.14,1.44.37.48.71.94,1.02,1.36.31.42.54.74.69.95.14-.02.29-.03.44-.03h.89c.15,0,.3.01.45.03-.14-.14-.33-.35-.56-.62-.23-.27-.48-.57-.74-.9-.26-.33-.53-.67-.82-1.03-.28-.36-.55-.7-.82-1.03-.26-.33-.5-.63-.71-.9-.21-.27-.38-.48-.5-.64.29-.04.62-.12.97-.25.36-.13.69-.3,1-.53.31-.23.58-.51.79-.86.22-.35.32-.76.32-1.25,0-.45-.08-.83-.25-1.13-.17-.3-.39-.55-.68-.73-.29-.19-.62-.32-1-.4-.38-.08-.79-.12-1.21-.12-.29,0-.58.01-.86.04-.28.02-.57.04-.86.04s-.58,0-.86-.02c-.28-.01-.57-.03-.86-.05.03.66.06,1.32.08,1.96.02.64.04,1.29.04,1.96v2.6ZM95.76,67.86v2.6c0,.66-.01,1.32-.04,1.96-.03.64-.05,1.28-.08,1.93.46-.02.92-.03,1.38-.03h2.74c.45,0,.9.01,1.35.03-.03-.1-.05-.23-.05-.39,0-.07,0-.15,0-.23,0-.08.02-.16.04-.23-.24.05-.53.09-.85.11-.33.03-.67.05-1.04.06-.37.01-.74.02-1.13.02h-1.06c-.01-.19-.02-.47-.02-.84,0-.37,0-.85,0-1.42v-1.5c0-.16,0-.29,0-.4,0-.11,0-.2,0-.3.18,0,.43,0,.73,0,.31,0,.63.01.98.02.35,0,.7.02,1.04.04.35.02.65.05.91.08-.03-.15-.05-.3-.05-.45,0-.16.01-.32.05-.47-.22.02-.46.04-.7.05-.25.01-.52.03-.81.05s-.61.03-.97.04c-.35.01-.75.01-1.19.01,0-.19,0-.47,0-.85,0-.37,0-.76,0-1.15s0-.7.02-1c.02-.29.03-.6.04-.92.49,0,.92,0,1.27.02.35.01.68.03.97.05.3.02.58.04.85.06.27.02.56.04.88.06-.03-.15-.04-.3-.04-.45s.01-.3.04-.45c-.45.02-.9.04-1.34.05-.44.01-.89.02-1.35.02s-.9,0-1.35-.02c-.45-.01-.9-.03-1.35-.05.03.64.06,1.29.08,1.93.03.64.04,1.3.04,1.96M91.25,67.87v.53c-.54.01-1.07.02-1.58.03-.51.01-1.03.01-1.58.01s-1.07,0-1.58-.01c-.51-.01-1.04-.02-1.58-.03v-.53c0-.67.01-1.32.04-1.96.03-.64.05-1.29.08-1.96-.13.02-.26.04-.38.05-.12.01-.24.02-.36.02s-.24,0-.36-.02c-.12-.01-.25-.03-.38-.05.03.66.06,1.32.08,1.96.03.64.04,1.29.04,1.96v2.6c0,.67-.01,1.32-.04,1.96-.03.64-.05,1.28-.08,1.9.23-.02.48-.03.74-.03s.51.01.74.03c-.03-.62-.06-1.26-.08-1.9-.03-.65-.04-1.3-.04-1.96v-1.36c.54,0,1.07-.02,1.58-.02.51,0,1.03,0,1.58,0s1.07,0,1.58,0c.51,0,1.04.01,1.58.02v1.36c0,.67-.01,1.32-.04,1.96-.03.64-.05,1.28-.08,1.9.23-.02.48-.03.74-.03s.51.01.74.03c-.03-.62-.06-1.26-.08-1.9-.03-.65-.04-1.3-.04-1.96v-2.6c0-.67.01-1.32.04-1.96.02-.64.05-1.29.08-1.96-.13.02-.26.04-.38.05-.12.01-.24.02-.36.02s-.24,0-.36-.02-.25-.03-.38-.05c.03.66.06,1.32.08,1.96.03.64.04,1.29.04,1.96M81.13,73.72l.14-.89-.06-.06c-.14.11-.31.24-.52.39-.21.15-.44.28-.69.41-.26.13-.54.23-.85.32-.31.09-.64.14-1,.14-.6,0-1.15-.1-1.66-.29-.51-.19-.95-.49-1.33-.88s-.67-.9-.88-1.51c-.21-.61-.32-1.33-.32-2.17s.11-1.56.32-2.17c.21-.61.51-1.11.88-1.51.38-.4.82-.69,1.33-.88.51-.19,1.06-.29,1.66-.29.36,0,.69.05,1,.14.3.1.57.21.82.36.24.14.45.29.64.44.18.15.32.29.42.41l.09-.03c.03-.16.07-.36.12-.6.05-.24.12-.43.2-.57-.42-.19-.91-.35-1.46-.49-.55-.14-1.16-.2-1.82-.2-.84,0-1.6.12-2.3.36-.69.24-1.29.59-1.79,1.06-.5.46-.89,1.03-1.16,1.7-.28.67-.42,1.43-.42,2.29s.14,1.62.42,2.29c.28.67.66,1.24,1.15,1.7.49.46,1.07.81,1.75,1.03.68.23,1.41.34,2.21.34.37,0,.73-.03,1.07-.09.34-.06.65-.13.93-.2.28-.08.51-.16.71-.26.2-.1.34-.18.43-.26M65.14,72.37h-.18c-.03.29-.06.53-.1.72-.04.19-.1.4-.19.63.26.21.59.4.97.57.39.17.89.25,1.52.25.58,0,1.11-.08,1.56-.25.46-.17.85-.4,1.16-.71.32-.31.56-.67.72-1.08s.25-.85.25-1.31c0-.55-.12-1-.35-1.33-.24-.33-.53-.6-.88-.82-.35-.21-.73-.39-1.14-.54s-.79-.31-1.14-.5c-.35-.19-.65-.42-.88-.69-.24-.27-.35-.65-.35-1.12,0-.27.05-.52.14-.76.1-.23.23-.43.41-.6.18-.17.38-.3.62-.39.24-.09.5-.14.78-.14s.52.05.72.14c.2.1.38.21.52.36.15.14.26.3.35.46.09.17.15.32.2.46h.18c.06-.29.12-.53.18-.72.06-.19.14-.37.23-.54-.3-.24-.63-.42-.98-.54-.35-.12-.77-.17-1.25-.17s-.96.07-1.36.21c-.4.14-.75.34-1.03.59-.29.25-.51.55-.66.9-.15.35-.23.73-.23,1.16,0,.59.12,1.07.36,1.42.24.35.53.64.88.87.35.23.73.41,1.14.57.41.15.79.32,1.14.5.35.18.65.41.88.68s.36.64.36,1.1c0,.3-.05.59-.15.85-.1.27-.24.5-.43.69-.19.2-.41.35-.68.47-.27.12-.57.17-.9.17s-.61-.05-.88-.14c-.26-.1-.49-.22-.69-.37-.2-.15-.36-.32-.5-.51-.14-.19-.24-.37-.33-.55M60.97,67.87v2.6c0,.67-.01,1.32-.04,1.96-.02.64-.05,1.28-.08,1.9.23-.02.48-.03.74-.03s.51.01.74.03c-.03-.62-.06-1.26-.08-1.9-.03-.65-.04-1.3-.04-1.96v-2.6c0-.67.01-1.32.04-1.96.02-.64.05-1.29.08-1.96-.13.02-.26.04-.38.05-.12.01-.24.02-.36.02s-.24,0-.36-.02-.25-.03-.38-.05c.03.66.06,1.32.08,1.96.03.64.04,1.29.04,1.96M57.42,74.54h.21v-.5c0-.24,0-.53,0-.85,0-.33,0-.68-.01-1.06,0-.38,0-.75-.01-1.12,0-.37,0-.73,0-1.07v-.91c0-.29,0-.68.03-1.16.02-.48.04-.98.07-1.48.02-.5.05-.98.08-1.42.02-.44.05-.77.07-1-.2.05-.36.08-.48.08-.14,0-.31-.02-.51-.08.05.89.08,1.83.1,2.83.01,1,.02,2.03.02,3.09v2.05c-.46-.46-1-1.02-1.62-1.68-.62-.66-1.27-1.36-1.96-2.1-.69-.74-1.39-1.49-2.09-2.25-.7-.76-1.36-1.47-1.97-2.14h-.24c.02.34.03.86.04,1.56,0,.7,0,1.53,0,2.49,0,.33,0,.71-.01,1.13-.01.42-.02.86-.04,1.3-.01.44-.04.89-.06,1.33-.03.44-.05.85-.07,1.23-.02.38-.04.7-.07.97-.02.27-.05.46-.07.56.17-.02.36-.03.56-.03s.37.01.53.03c0-.08-.02-.23-.03-.46,0-.23-.02-.49-.03-.79-.01-.3-.02-.63-.03-.98-.01-.35-.02-.7-.02-1.04,0-.34,0-.67-.01-.98,0-.31,0-.57,0-.78,0-.82,0-1.46.01-1.93,0-.47.02-.85.03-1.13,1.31,1.39,2.62,2.79,3.93,4.19,1.31,1.4,2.54,2.78,3.7,4.12M44.7,71.34c-.21.61-.51,1.11-.88,1.51-.38.4-.82.69-1.33.88-.51.19-1.06.29-1.65.29s-1.13-.1-1.64-.29c-.51-.19-.95-.49-1.33-.88-.38-.4-.67-.9-.88-1.51-.21-.61-.32-1.33-.32-2.17s.11-1.56.32-2.17c.21-.61.51-1.11.88-1.51.38-.4.82-.69,1.33-.88.51-.19,1.06-.29,1.64-.29s1.15.1,1.65.29c.51.19.95.49,1.33.88.38.4.67.9.88,1.51.21.61.32,1.33.32,2.17s-.11,1.56-.32,2.17M35.6,71.46c.28.67.66,1.24,1.16,1.7.5.46,1.1.81,1.79,1.03.69.23,1.45.34,2.28.34s1.6-.11,2.3-.34c.69-.23,1.29-.57,1.79-1.03.5-.46.89-1.03,1.16-1.7.28-.67.42-1.43.42-2.29s-.14-1.62-.42-2.29c-.28-.67-.67-1.24-1.16-1.7-.5-.46-1.1-.82-1.79-1.06-.69-.24-1.46-.36-2.3-.36s-1.59.12-2.28.36c-.69.24-1.29.59-1.79,1.06-.5.46-.89,1.03-1.16,1.7-.28.67-.42,1.43-.42,2.29s.14,1.62.42,2.29M27.67,74.31c.26,0,.51.01.74.03-.03-.62-.06-1.26-.08-1.9-.02-.65-.04-1.3-.04-1.96v-1.31c0-.06.02-.09.07-.09.04,0,.1.04.18.12.16.16.41.44.75.84.34.4.72.85,1.13,1.34.42.5.85,1.01,1.28,1.55.44.53.84,1.01,1.2,1.42.14-.02.28-.03.42-.03h.87c.15,0,.3.01.45.03-.86-.96-1.7-1.91-2.53-2.86-.83-.95-1.65-1.89-2.47-2.8.27-.31.61-.68,1.02-1.09.41-.42.84-.84,1.28-1.28s.89-.86,1.34-1.27c.44-.41.84-.77,1.19-1.07-.12.02-.24.04-.36.05-.12.01-.24.02-.36.02-.1,0-.2,0-.3-.02-.1-.01-.21-.03-.32-.05-.35.4-.72.82-1.1,1.25s-.77.85-1.16,1.26-.78.81-1.17,1.19c-.39.38-.76.73-1.11,1.03-.1.09-.17.14-.21.14-.06,0-.09-.04-.09-.12v-.83c0-.67.01-1.32.04-1.96.03-.64.05-1.29.08-1.96-.13.02-.26.04-.38.05s-.24.02-.36.02-.24,0-.36-.02-.25-.03-.38-.05c.03.66.06,1.32.08,1.96.02.64.04,1.29.04,1.96v2.6c0,.67-.01,1.32-.04,1.96-.02.64-.05,1.28-.08,1.9.23-.02.48-.03.74-.03M24.51,73.28c-.21-.46-.44-.99-.69-1.58-.26-.59-.53-1.23-.82-1.91-.29-.68-.59-1.37-.88-2.07s-.58-1.38-.86-2.06c-.28-.68-.54-1.31-.78-1.9h-.29c-.79,1.8-1.57,3.58-2.34,5.32-.77,1.74-1.57,3.49-2.39,5.26.17-.02.36-.03.56-.03s.39.01.56.03c.13-.46.33-1.05.59-1.76.26-.71.55-1.46.88-2.24.31-.01.62-.02.92-.02.3,0,.61,0,.92,0,.33,0,.66,0,1,0,.33,0,.66.01.98.02.13.33.27.68.42,1.05.15.37.3.73.45,1.09.15.36.28.7.4,1.03.12.33.22.61.29.84.14-.02.27-.03.4-.03h.8c.13,0,.26.01.4.03-.13-.24-.3-.59-.51-1.06M19.97,65.8l1.68,3.84c-.28.01-.56.02-.85.02-.28,0-.56,0-.85,0-.26,0-.53,0-.82-.01s-.55-.01-.82-.01l1.65-3.84ZM12.18,67.87v2.6c0,.67-.01,1.32-.04,1.96-.03.64-.05,1.28-.08,1.9.23-.02.48-.03.74-.03s.51.01.74.03c-.03-.62-.06-1.26-.08-1.9-.03-.65-.04-1.3-.04-1.96v-2.6c0-.67.01-1.32.04-1.96.02-.64.05-1.29.08-1.96-.13.02-.26.04-.38.05-.12.01-.24.02-.36.02s-.24,0-.36-.02c-.12-.01-.25-.03-.38-.05.03.66.06,1.32.08,1.96.02.64.04,1.29.04,1.96M1.36,67.87c0-.54,0-1.08.02-1.61.01-.53.04-1.03.07-1.52.31-.04.66-.08,1.06-.11.39-.03.81-.05,1.27-.05.62,0,1.2.06,1.72.19.52.13.97.35,1.35.68.38.33.67.77.89,1.34.22.56.33,1.28.33,2.16,0,1-.14,1.81-.42,2.44-.28.63-.63,1.12-1.07,1.49-.44.36-.93.61-1.49.74-.55.13-1.11.2-1.66.2-.38,0-.76-.01-1.12-.04-.36-.02-.65-.06-.86-.11-.06-1.05-.09-2.11-.09-3.2v-2.6ZM.12,70.47c0,.67-.01,1.32-.04,1.96-.02.64-.05,1.28-.08,1.9.34-.02.68-.03,1.01-.03h1.01c.34,0,.68,0,1.01.01.33.01.67.02,1.01.02.59,0,1.22-.09,1.87-.26.65-.18,1.24-.48,1.78-.9.54-.42.98-.98,1.33-1.67s.52-1.54.52-2.55c0-.77-.09-1.47-.28-2.09-.19-.62-.48-1.14-.88-1.57-.4-.43-.92-.76-1.55-.99-.63-.23-1.39-.35-2.27-.35-.38,0-.76.01-1.14.04-.38.02-.76.04-1.14.04s-.76,0-1.14-.02c-.38-.01-.76-.03-1.14-.05.03.66.06,1.32.08,1.96.03.64.04,1.29.04,1.96v2.6Z"/><path class="cls-2" d="M87,18.14s-1.68,1.63-1.29,3.97c.39,2.34,3.95,3.36,3.95,3.36,0,0,.59-2.95-.24-4.71-.83-1.75-2.42-2.62-2.42-2.62"/><path class="cls-2" d="M85.89,5.15s-.18-1.54-1.2-2.12c-1.02-.58-2.36-.39-2.36-.39,0,0,.82,2.44,1.75,2.67.93.23,1.8-.15,1.8-.15"/><path class="cls-2" d="M108.05,4.49s-.94.96-.78,1.97,1.03,1.81,1.03,1.81c0,0,1.2-1.89.84-2.64-.36-.76-1.09-1.13-1.09-1.13"/><path class="cls-4" d="M93.74,18.99s-3.7-2.04-2.68-4.68c1.02-2.63,1.65-3.85,3.21-4.43,1.56-.58,4.19-1.07,4.19-1.07,0,0,.19,2.92-1.8,5.41-2,2.48-2.92,4.77-2.92,4.77"/><path class="cls-2" d="M105.79,41.6s1.03-.44,1.65.37c.62.81.88,1.24.77,1.83s-.15.99-.15.99c0,0-.85-.23-1.64-1.07-.92-.97-.63-2.12-.63-2.12"/><path class="cls-2" d="M81.94,32.07s.09,2.37-1.92,2.67c-2.01.3-3,.34-3.92-.43-.92-.77-2.16-1.41-2.16-1.41,0,0,2.22-2.35,4.49-1.98,2.27.36,3.51,1.15,3.51,1.15"/><path class="cls-3" d="M99.44,20.5s-1.27-2.82.68-4.53,4.14-3.75,4.14-3.75c0,0,1.22,2.87,0,4.82-1.22,1.95-3.8,3.12-4.82,3.46"/><path class="cls-2" d="M88.56,15.68c-.09.1-3.04-1.78-3.31-3.73-.27-1.96-.31-4.09,0-5.91,0,0,4.35,2.49,4.4,4.29.04,1.8-.53,4.73-1.09,5.36"/><path class="cls-3" d="M77.96,22.64s.54,2.63,2.09,2.92,4.53-.44,4.53-.44c0,0-.69-2.63-2.54-3.7-1.85-1.07-4.09,1.22-4.09,1.22"/><path class="cls-3" d="M80.15,12.76s-.78,3.17,0,4.38c.78,1.22,3.65,2.39,3.65,2.39,0,0,1.18-2.24.78-3.16-.39-.93-.05-2.05-4.44-3.6"/><path class="cls-4" d="M79.38,3.99s-1.8,4.38-.44,5.5c1.36,1.12,4.14,1.9,4.14,1.9,0,0,1.17-3.31,0-4.38-1.17-1.07-3.7-3.02-3.7-3.02"/><path class="cls-5" d="M79.77,36.95s4.24,2.12,5.46.85c1.22-1.28,2.7-3.18,2.7-3.18,0,0-3.68-1.87-4.84-.78-1.15,1.09-3.32,3.12-3.32,3.12"/><path class="cls-2" d="M100.32,12.22s-1.02-3.7-.34-4.53c.68-.83,4.83-3.7,4.83-3.7,0,0,1.21,2.58.87,4.12-.34,1.53-.44,2.85-5.36,4.12"/><path class="cls-4" d="M98.47,6.04s-1.17-2.63-.49-3.65c.68-1.02,2.68-1.61,2.68-1.61,0,0,1.3,1.47,1.26,2.29-.04.83-1.69,1.95-3.45,2.97"/><path class="cls-2" d="M79.64,45.57s-1.17-2.63-.49-3.65c.68-1.02,2.68-1.61,2.68-1.61,0,0,1.31,1.47,1.26,2.29-.04.83-1.69,1.95-3.45,2.97"/><path class="cls-5" d="M108.89,33.5s3-2.08,4.46-1.59c1.46.49,2.71,3.03,2.71,3.03,0,0-1.5,1.48-2.56,1.66-1.05.18-2.88-1.38-4.61-3.1"/><path class="cls-5" d="M92.37,8.48c.1-.16-.07-1.83.16-2.49.23-.65,2.52-2.43,2.62-2.43s.92,2.07.79,2.72c-.13.66-1.78,1.72-1.78,1.72l-1.79.48Z"/><path class="cls-2" d="M101.65,40.28c.02.23,2.25,1.45,2.5,2.24s.31,3.72.21,3.79c-.09.07-3.35-.88-3.7-1.61-.35-.72.47-2.94.47-2.94l.52-1.48Z"/><path class="cls-3" d="M68.32,23.07c.23.06,2.23-.68,3.11-.64.87.04,3.72,2,3.75,2.11s-2.26,1.69-3.11,1.76-2.64-1.4-2.64-1.4l-1.11-1.83Z"/><path class="cls-2" d="M89.36,6.67c-.39-.1-2.04-2.34-2.24-3.26-.2-.92.42-2.33,1.84-3.31,0,0,1.84,1.51,1.92,2.82.08,1.31-1.53,3.75-1.53,3.75"/><path class="cls-2" d="M87.91,43.24c-.31-.08-1.26-1.85-1.4-2.58-.23-1.18,1.5-2.51,2.63-3.28,0,0,.17,2.25.23,3.28.07,1.03-1.46,2.58-1.46,2.58"/><path class="cls-2" d="M85.67,43.11s-1.48,2.48-1.29,2.63,1.17,1.31,1.51,1.75c0,0,1.22-.78,1.02-1.8-.19-1.02-1.25-2.58-1.25-2.58"/><path class="cls-2" d="M94.68,0s-2.63,1.2-2.56,1.43c.08.23.21,1.75.24,2.3,0,0,1.44.05,1.87-.9C94.66,1.88,94.68,0,94.68,0"/><path class="cls-2" d="M73.44,21.05s1.5,1.32,2.35,1.31c.56,0,2.19-1.27,2.64-1.6,0,0-1.34-1.03-2.37-.87-1.03.16-2.62,1.16-2.62,1.16"/><path class="cls-2" d="M113.87,23.28s2.43,1.57,2.58,1.38c.15-.19,1.35-1.12,1.8-1.45,0,0-.74-1.24-1.77-1.08-1.03.16-2.62,1.16-2.62,1.16"/><path class="cls-4" d="M104.41,24.15c-.19.16,4.87.97,6.28.63,1.41-.34,2.58-2.39,2.92-2.87.54-.77.54-1.41.54-1.41,0,0-4.06-.18-5.45.66-.64.39-2.2,1.17-4.3,3"/><path class="cls-2" d="M106.01,20.5s-.73-2.58.44-3.7c1.17-1.12,4.19-1.61,4.33-1.61s.83,2.65.83,2.65c0,0,.39,1.24-5.6,2.65"/><path class="cls-2" d="M110.77,30.92s-.84-2.65.5-3.8c1.35-1.15,4.82-1.65,4.99-1.65s.95,2.73.95,2.73c0,0,.45,1.28-6.44,2.73"/><path class="cls-5" d="M106.92,15.19c.24-.36-.86-4.04,1.38-5.7,2.24-1.65,3.12-.78,4.43-.68,0,0,.29,3.17-.59,3.94-.88.78-5.23,2.43-5.23,2.43"/><path class="cls-5" d="M70.12,14.92c.44.06,3.23-2.57,5.72-1.31,2.48,1.26,2.09,2.44,2.59,3.66,0,0-2.7,1.67-3.79,1.24-1.09-.44-4.51-3.59-4.51-3.59"/><path class="cls-2" d="M101.69,29.75s.29,2.83,1.95,3.31c1.66.49,3.43.29,3.47.34.04.05-.21-2.24-1.33-2.87-1.12-.63-2.04-1.22-4.09-.78"/><path class="cls-2" d="M102.95,26.59s1.47-1.13,1.86-.95c.38.18,2.62.95,2.67.95s.58,2.14.58,2.14h-2.87s-2.48-.48-2.24-2.14"/><path class="cls-2" d="M74.68,8.98s1.82-.33,2.09,0c.26.33,1.9,2.05,1.94,2.07.04.02-.46,2.17-.46,2.17l-2.55-1.32s-1.99-1.57-1.01-2.93"/><path class="cls-2" d="M72.24,36.84s.56-.99.82-.98c.26,0,1.71-.08,1.74-.1.03-.01.84,1.07.84,1.07l-1.62.68s-1.52.32-1.77-.68"/><path class="cls-2" d="M68.93,20.03s.7-1.09,1-1.09c.3,0,1.79.07,1.82.06.03-.01,1.13.88,1.13.88l-1.92.81s-1.78.41-2.03-.66"/><path class="cls-2" d="M68.92,30.11s.96-2.38,1.54-2.48c.58-.1,3.82-.98,3.88-1.01.06-.04,2.22,1.9,2.22,1.9l-3.44,2.22s-3.32,1.39-4.2-.62"/><path class="cls-2" d="M116.47,15.07s.24,1.66-.1,1.8c-.33.13-2.08,1.06-2.1,1.09-.02.03-2.09-1.01-2.09-1.01l1.4-1.83s1.61-1.27,2.89-.05"/><path class="cls-4" d="M74.27,40.8s.76-2.05,1.25-2.19c.49-.14,3.22-1.16,3.26-1.2.05-.04,1.93,1.36,1.93,1.36l-2.87,2.15s-2.78,1.45-3.58-.12"/><path class="cls-4" d="M98.71,33.26s-.37,2.93.72,3.33c1.1.4,1.46,1.55,3.11,1.3,0,0,.81-3.48-.49-4-1.3-.52-2.33-.93-3.34-.64"/><path class="cls-4" d="M86.93,29.9s-2.43.88-3.39.87c-.96-.01-2.53-.19-3.58-1.79,0,0,1.39-2.45,2.37-2.3.98.14,3.17,1.29,3.17,1.29l1.43,1.93Z"/><path class="cls-3" d="M104.16,34.22s.51,2.83.6,3.39c.22,1.35.48,2.58,1.96,2.93,1.75.41,4,.36,4,.36,0,0,.1-3.21-.79-4.29-.89-1.07-5.78-2.39-5.78-2.39"/><path class="cls-6" d="M87.93,49.71s3.54-1.55,3.57-5.26c.04-3.72.44-10.62-3.29-12.61,0,0,1.45-.2,2.9,1.55,0,0-.94-4.61-3.18-5.85,0,0,1.18-.04,2.76,1.82l1.75,2.48s.05-7.57-1.42-11.96c0,0,1.41,1.83,2.76,7.3,0,0,.8-5.42,2.76-9.22l-.26,3.76,1.64-.96-1.71,2.25s-.49,4.47-.65,7.77c0,0,3.09-7.34,7.22-9.64l-2.07,2.92,2.07.61-2.38.2c-.24-.06-3.31,6.28-3.76,9.35-.46,3.1-.46,6.08-.46,6.08.85-.94,1.33-1.51,2.46-2.1,0,0-1.48,2.07-1.81,3.28-.33.73-.33,1.43-.08,3.81.41,2.14,1.81,3.59,4.39,4.41h-13.21Z"/></g></g></svg>