<?xml version="1.0" encoding="UTF-8"?><svg id="Ebene_2" xmlns="http://www.w3.org/2000/svg" viewBox="0 0 138.52 37.12"><defs><style>.cls-1{fill:#98cd2d;}.cls-2{fill:#4d4d4c;}</style></defs><g id="Ebene_1-2"><path class="cls-1" d="M69.97,8.73s-.89.01-.75-1.02c.13-1.03.72-2.94.48-5.65,0,0-.07-1.09.49-1.07.3,0,.51.28.64.99.11.61.15,1.55.14,2.93-.03,2.98-.48,4.02-1,3.83"/><path class="cls-1" d="M68.58,8.86s-.63.17-.73-.59c-.09-.77-.01-2.25-.68-4.16,0,0-.25-.77.16-.86.22-.05.42.11.64.6.19.42.39,1.08.63,2.08.52,2.15.38,2.98-.03,2.94"/><path class="cls-1" d="M71.61,8.86s-.68-.07-.49-.84c.19-.78.81-2.19.87-4.29,0,0,.04-.84.47-.78.23.04.37.26.4.82.03.48-.02,1.2-.15,2.26-.29,2.28-.73,3.04-1.11,2.84"/><path class="cls-1" d="M63.62,5.53c.15.28.1.6-.12.71-.21.11-.5-.03-.65-.31-.15-.28-.1-.6.12-.72.21-.11.5.03.65.31"/><path class="cls-1" d="M76.32,5.71c-.15.28-.1.6.12.71.21.11.5-.03.66-.31.15-.28.1-.6-.12-.72-.21-.11-.51.03-.65.31"/><path class="cls-1" d="M64.43,7.19s1.46,0,2.36.97c0,0-.83-1.59-3.11-1.32,0,0,1.49,1.8,2.03,4.04.29.04.59.08.91.11-.32-1.17-.97-2.52-2.18-3.81"/><path class="cls-1" d="M76.16,6.84c-2.28-.28-3.11,1.31-3.11,1.31.9-.97,2.35-.97,2.35-.97-1.38,1.46-2.03,2.76-2.32,3.79.36-.04.72-.09,1.06-.14.54-2.22,2.02-3.99,2.02-3.99"/><path class="cls-1" d="M66.79,8.15s-.02-.04-.06-.1c-.01,0-.03,0-.04,0,.03.03.07.06.1.1"/><path class="cls-1" d="M73.12,8.09s-.02,0-.03,0c-.03.05-.04.07-.04.07.02-.02.05-.05.07-.07"/><path class="cls-1" d="M69.86,0c1.02,4.11-.05,8.43-1.02,11.14.07,0,.14,0,.22,0,2.49-7.73.8-11.15.8-11.15"/><path class="cls-1" d="M66.91,2.6c1.46,3.06,1.59,6.19,1.38,8.52.05,0,.09,0,.14,0,.44-5.57-1.52-8.53-1.52-8.53"/><path class="cls-1" d="M72.3,2.16c.3,3.62-.8,6.79-1.9,8.98.06,0,.11,0,.17,0,2.56-5.32,1.74-8.98,1.74-8.98"/><path class="cls-1" d="M.74,22.22c.13.17.28.33.46.47.18.14.4.26.64.35.24.09.52.13.82.13s.59-.05.84-.16c.25-.11.46-.25.63-.44.17-.18.31-.4.4-.65.09-.25.14-.51.14-.8,0-.43-.11-.77-.33-1.03-.22-.25-.49-.46-.82-.63-.33-.17-.68-.32-1.06-.46-.38-.14-.73-.32-1.06-.53-.33-.21-.6-.48-.82-.81-.22-.33-.33-.77-.33-1.32,0-.39.07-.75.21-1.08.14-.32.34-.6.61-.84.27-.24.59-.42.96-.55.38-.13.8-.2,1.27-.2s.84.05,1.17.16c.33.11.63.27.91.5-.08.16-.16.33-.21.51-.06.18-.11.4-.17.68h-.17c-.05-.13-.11-.27-.19-.43-.08-.15-.19-.3-.32-.43-.14-.13-.3-.24-.49-.33-.19-.09-.41-.13-.68-.13s-.5.04-.73.13c-.22.09-.41.2-.58.36-.16.15-.29.34-.38.56s-.13.45-.13.7c0,.44.11.79.33,1.04.22.25.5.47.82.64.33.17.68.33,1.06.47.38.14.73.3,1.06.5.33.2.6.45.82.76.22.31.33.72.33,1.24,0,.43-.08.84-.23,1.23-.16.39-.38.72-.68,1.01-.3.29-.66.51-1.08.66-.43.15-.91.23-1.46.23-.58,0-1.05-.08-1.41-.23-.36-.15-.66-.33-.91-.53.09-.22.14-.41.18-.58.03-.17.06-.4.09-.67h.17c.07.17.17.34.3.51"/><path class="cls-1" d="M8.17,15.66c-.02-.6-.05-1.2-.08-1.8.42.02.84.04,1.26.05.42.01.84.02,1.26.02s.84,0,1.25-.02.83-.03,1.25-.05c-.03.14-.04.28-.04.42s.01.28.04.42c-.3-.02-.57-.04-.82-.06-.25-.02-.51-.04-.79-.06-.28-.02-.58-.03-.91-.05-.33-.01-.72-.02-1.18-.02-.01.3-.02.59-.03.86-.01.27-.02.58-.02.93,0,.37,0,.72,0,1.07,0,.35,0,.61,0,.79.41,0,.78,0,1.11-.02.33,0,.63-.02.9-.03.27-.01.52-.03.75-.04s.45-.03.66-.05c-.03.14-.04.29-.04.44,0,.14.01.28.04.42-.24-.03-.53-.05-.85-.07-.32-.02-.65-.03-.97-.03-.32,0-.63,0-.92-.01-.29,0-.51,0-.68,0,0,.08,0,.18,0,.27,0,.1,0,.22,0,.37v1.39c0,.53,0,.98,0,1.32,0,.35.01.61.02.79h.98c.36,0,.71,0,1.05-.02.34-.01.67-.03.97-.06.31-.02.57-.06.8-.11-.02.07-.03.14-.03.22,0,.08,0,.15,0,.22,0,.15.01.27.04.37-.42-.02-.84-.03-1.26-.03h-2.55c-.42,0-.85,0-1.28.03.03-.6.05-1.2.08-1.8.02-.6.03-1.2.03-1.82v-2.42c0-.62-.01-1.23-.03-1.83"/><path class="cls-1" d="M20.14,19.88c-1.22-1.31-2.44-2.61-3.66-3.91,0,.26-.02.61-.03,1.06-.01.44-.01,1.04-.01,1.8,0,.2,0,.44,0,.73,0,.29,0,.6.01.91,0,.32.01.64.02.97,0,.33.02.63.03.91,0,.28.02.53.03.74.01.21.02.35.03.43-.15-.02-.31-.03-.49-.03-.19,0-.36,0-.52.03.02-.09.04-.27.06-.52.02-.25.05-.56.06-.91.02-.35.04-.73.06-1.15.02-.41.04-.83.06-1.24s.03-.82.04-1.21c0-.39.01-.75.01-1.06,0-.9,0-1.68,0-2.32,0-.65-.02-1.13-.04-1.45h.23c.57.62,1.18,1.28,1.84,1.99.65.71,1.3,1.41,1.94,2.1.64.69,1.25,1.34,1.83,1.96.58.61,1.08,1.14,1.51,1.57v-1.91c0-.99,0-1.94-.02-2.88s-.04-1.81-.09-2.64c.19.05.35.07.48.07.11,0,.26-.02.45-.07-.02.21-.04.52-.06.93-.02.41-.05.85-.07,1.32-.02.47-.05.93-.06,1.38-.02.45-.03.81-.03,1.08v.84c0,.32,0,.65,0,1,0,.35.01.7.01,1.05,0,.35.01.68.01.99,0,.31,0,.57,0,.8v.47h-.2c-1.08-1.25-2.23-2.53-3.45-3.84"/><path class="cls-1" d="M27.01,15.69c-.02-.6-.05-1.2-.08-1.82.12.02.24.03.35.05.11.01.23.02.34.02s.23,0,.34-.02c.11-.01.23-.03.35-.05-.03.62-.05,1.23-.08,1.82-.02.6-.04,1.2-.04,1.82v2.42c0,.62.01,1.23.04,1.83.02.6.05,1.19.08,1.77-.22-.02-.45-.03-.69-.03s-.47.01-.69.03c.03-.58.05-1.17.08-1.77.02-.6.03-1.21.03-1.83v-2.42c0-.62-.01-1.23-.03-1.82"/><path class="cls-1" d="M39.46,16.7c-.2-.57-.47-1.04-.82-1.41-.35-.37-.76-.65-1.24-.82-.47-.18-.99-.27-1.54-.27s-1.05.09-1.53.27c-.47.18-.89.45-1.24.82-.35.37-.63.84-.82,1.41-.2.57-.3,1.24-.3,2.02s.1,1.45.3,2.02c.2.57.47,1.04.82,1.41.35.37.77.65,1.24.82.47.18.98.27,1.53.27s1.07-.09,1.54-.27c.47-.18.89-.45,1.24-.82.35-.37.63-.84.82-1.41.2-.57.3-1.24.3-2.02s-.1-1.45-.3-2.02M30.98,16.59c.26-.62.62-1.15,1.08-1.58.46-.43,1.02-.76,1.67-.99s1.36-.34,2.12-.34,1.49.11,2.14.34,1.2.55,1.67.99c.47.43.83.96,1.08,1.58s.39,1.33.39,2.13-.13,1.51-.39,2.13c-.26.62-.62,1.15-1.08,1.58-.46.43-1.02.75-1.67.96-.65.21-1.36.32-2.14.32s-1.48-.11-2.12-.32c-.65-.21-1.2-.53-1.67-.96-.47-.43-.83-.96-1.08-1.58-.26-.62-.39-1.33-.39-2.13s.13-1.51.39-2.13"/><path class="cls-1" d="M45.11,18.37c.15,0,.33.01.51.01.29,0,.59-.03.91-.1.31-.07.6-.18.86-.34.26-.16.48-.38.66-.66.17-.28.26-.63.26-1.05,0-.37-.07-.67-.2-.91-.14-.24-.31-.43-.53-.57-.22-.14-.45-.24-.7-.29-.25-.05-.5-.08-.75-.08-.33,0-.6,0-.82.02-.22.01-.4.03-.55.05-.02.52-.04,1.03-.06,1.53-.02.51-.03,1.01-.03,1.52v.8c.13.03.28.05.43.06M43.49,15.69c-.02-.6-.05-1.2-.08-1.82.27.02.54.03.8.05.26.01.53.02.8.02s.54-.01.8-.04c.26-.02.53-.03.8-.03.39,0,.77.04,1.13.11.36.07.67.2.94.37.27.17.48.4.63.68.15.28.23.63.23,1.05,0,.45-.1.84-.3,1.16-.2.32-.45.59-.74.8s-.6.38-.94.49c-.33.12-.64.19-.91.23.11.14.27.34.47.59s.42.53.66.84c.24.3.5.62.76.96s.52.65.76.96c.24.3.47.58.69.84.22.25.39.44.52.58-.14-.02-.28-.03-.42-.03h-.83c-.14,0-.28.01-.41.03-.14-.2-.35-.49-.64-.89-.29-.39-.6-.82-.95-1.27-.35-.45-.7-.9-1.06-1.34-.36-.45-.69-.82-.99-1.13h-.53v1.03c0,.62.01,1.23.04,1.83.02.6.05,1.19.08,1.77-.22-.02-.45-.03-.69-.03s-.47.01-.69.03c.03-.58.05-1.17.08-1.77.02-.6.03-1.21.03-1.83v-2.42c0-.62-.01-1.23-.03-1.82"/><path class="cls-1" d="M52.51,15.66c-.02-.6-.05-1.2-.08-1.8.42.02.84.04,1.26.05.42.01.84.02,1.26.02s.84,0,1.25-.02.83-.03,1.25-.05c-.03.14-.04.28-.04.42s.01.28.04.42c-.3-.02-.58-.04-.82-.06-.25-.02-.51-.04-.79-.06-.28-.02-.58-.03-.91-.05-.33-.01-.72-.02-1.18-.02,0,.3-.02.59-.03.86-.01.27-.02.58-.02.93,0,.37,0,.72,0,1.07,0,.35,0,.61,0,.79.41,0,.78,0,1.11-.02.33,0,.63-.02.9-.03.27-.01.52-.03.75-.04.23-.01.45-.03.65-.05-.03.14-.04.29-.04.44,0,.14.01.28.04.42-.24-.03-.53-.05-.85-.07-.32-.02-.65-.03-.97-.03-.32,0-.63,0-.91-.01-.29,0-.51,0-.68,0,0,.08,0,.18,0,.27,0,.1,0,.22,0,.37v1.39c0,.53,0,.98,0,1.32,0,.35.01.61.02.79h.99c.36,0,.71,0,1.05-.02.34-.01.67-.03.97-.06s.57-.06.8-.11c-.02.07-.03.14-.04.22,0,.08,0,.15,0,.22,0,.15.01.27.04.37-.42-.02-.84-.03-1.26-.03h-2.55c-.42,0-.85,0-1.28.03.03-.6.05-1.2.08-1.8.02-.6.03-1.2.03-1.82v-2.42c0-.62-.01-1.23-.03-1.83"/><path class="cls-1" d="M64.48,19.88c-1.22-1.31-2.44-2.61-3.66-3.91,0,.26-.02.61-.03,1.06s-.01,1.04-.01,1.8c0,.2,0,.44,0,.73,0,.29,0,.6.01.91,0,.32.01.64.02.97,0,.33.02.63.03.91,0,.28.02.53.03.74,0,.21.02.35.03.43-.15-.02-.31-.03-.49-.03-.19,0-.36,0-.52.03.02-.09.04-.27.06-.52.02-.25.05-.56.06-.91.02-.35.04-.73.06-1.15.02-.41.04-.83.06-1.24s.03-.82.04-1.21c0-.39.01-.75.01-1.06,0-.9,0-1.68,0-2.32,0-.65-.02-1.13-.04-1.45h.23c.57.62,1.18,1.28,1.84,1.99.65.71,1.3,1.41,1.94,2.1.64.69,1.25,1.34,1.83,1.96.58.61,1.08,1.14,1.51,1.57v-1.91c0-.99,0-1.94-.02-2.88s-.04-1.81-.09-2.64c.19.05.35.07.48.07.11,0,.26-.02.45-.07-.02.21-.04.52-.06.93-.02.41-.05.85-.07,1.32-.02.47-.04.93-.06,1.38-.02.45-.03.81-.03,1.08v.84c0,.32,0,.65,0,1,0,.35.01.7.01,1.05,0,.35,0,.68.01.99,0,.31,0,.57,0,.8v.47h-.2c-1.08-1.25-2.23-2.53-3.45-3.84"/><path class="cls-1" d="M71.32,21.52c.42-.68.85-1.38,1.29-2.13.44-.74.88-1.49,1.32-2.25.44-.76.85-1.49,1.23-2.2v-.03c-.75,0-1.49,0-2.24.01-.75.01-1.48.05-2.18.11.02-.1.04-.2.05-.3.01-.09.02-.19.02-.3s0-.2-.02-.3-.03-.19-.05-.3c.43,0,.81,0,1.15.01.33.01.65.02.94.02.3,0,.59.01.87.02.29,0,.59.01.92.01.29,0,.56,0,.81,0,.25,0,.51,0,.77-.01.26,0,.54-.01.84-.02.3,0,.65-.02,1.04-.03v.25c-.88,1.41-1.73,2.8-2.53,4.18-.81,1.38-1.61,2.78-2.41,4.19v.03c.73,0,1.35,0,1.86,0,.51,0,.95-.01,1.32-.02.38,0,.7-.02.96-.03.27-.01.53-.03.78-.05-.01.1-.02.2-.04.3-.02.09-.03.19-.03.3s0,.2.03.29c.02.09.03.17.04.25-.59-.02-1.16-.03-1.71-.03h-1.81c-1.14,0-2.08,0-2.84,0-.76,0-1.28.01-1.55.02v-.2c.35-.53.73-1.14,1.15-1.82"/><path class="cls-1" d="M80.11,15.69c-.02-.6-.04-1.21-.07-1.82.42.01.84.02,1.25.04.41.02.83.03,1.25.03.69,0,1.31,0,1.85-.02.54-.01.9-.03,1.09-.05-.04.15-.06.35-.06.59,0,.15,0,.27.01.35.01.08.02.18.04.28-.27-.02-.57-.04-.89-.06-.32-.02-.64-.04-.94-.06-.31-.02-.58-.03-.82-.04-.24,0-.42-.01-.52-.01-.04.52-.06,1.03-.06,1.53,0,.51,0,1.02,0,1.53.61-.01,1.16-.02,1.65-.04.49-.02,1.01-.04,1.54-.07-.03.16-.05.28-.06.37-.01.08-.01.17-.01.27,0,.08,0,.15.02.23.01.08.03.19.05.34-1.07-.08-2.14-.13-3.19-.13,0,.3,0,.6,0,.9,0,.3,0,.6,0,.9,0,.61.01,1.2.04,1.76.53,0,1.07-.01,1.6-.04.54-.03,1.07-.07,1.62-.14-.02.1-.03.2-.04.28,0,.08-.01.2-.01.35s0,.27.01.35c.01.08.02.15.04.21-.25-.01-.57-.02-.94-.02-.37,0-.88,0-1.53,0h-2.23c-.21,0-.37,0-.48,0-.11,0-.2.01-.27.02.03-.58.06-1.18.07-1.78.02-.6.03-1.3.03-2.08v-1.91c0-.78,0-1.47-.03-2.08"/><path class="cls-1" d="M87.84,15.03c-.02-.44-.03-.83-.04-1.17.26.05.47.07.63.07s.37-.02.63-.07c1.02,1.13,2.03,2.25,3.03,3.35,1,1.1,2.02,2.22,3.07,3.35v-2.59c0-.46,0-.91,0-1.36,0-.45-.01-.86-.02-1.23,0-.38-.01-.7-.03-.97-.01-.27-.03-.45-.05-.55.26.05.47.07.63.07s.37-.02.63-.07c-.05.85-.08,1.63-.11,2.31-.03.69-.05,1.34-.07,1.95s-.03,1.21-.04,1.81c0,.6,0,1.23,0,1.91v1.69c-.19-.02-.38-.03-.58-.03-.21,0-.39,0-.55.03-1.93-2.25-3.98-4.52-6.15-6.8,0,.27-.02.55-.02.82,0,.27,0,.55,0,.83v1.63c0,.56,0,1.04,0,1.44,0,.39.01.73.02,1,0,.27.02.49.03.67,0,.17.02.31.03.41-.11-.02-.23-.03-.34-.03h-.32c-.22,0-.43,0-.65.03.02-.07.04-.34.07-.8s.06-1.02.09-1.68c.03-.66.06-1.38.08-2.15.02-.77.04-1.52.04-2.23,0-.65,0-1.19-.03-1.63"/><path class="cls-1" d="M100.76,15.41c0-.23-.02-.39-.04-.49-.14,0-.31,0-.52.01-.21.01-.43.02-.66.03-.24.01-.47.03-.72.06-.25.02-.47.05-.68.08.02-.1.04-.21.05-.31.01-.1.02-.21.02-.31s0-.21-.02-.31c-.01-.1-.03-.21-.05-.31.32,0,.61.02.87.03.26,0,.52.02.79.02.27,0,.56,0,.87.01.31,0,.69,0,1.13,0s.82,0,1.13,0c.32,0,.6,0,.87-.01.26,0,.52-.01.77-.02.25,0,.52-.02.81-.03-.02.1-.04.21-.05.31-.01.1-.02.21-.02.31s0,.21.02.31c.01.1.03.21.05.31-.19-.03-.4-.05-.63-.08-.24-.02-.47-.04-.7-.06-.23-.01-.45-.02-.65-.03-.21,0-.38-.01-.52-.01,0,.05-.02.11-.02.2,0,.08,0,.18,0,.3v4.26c0,.78.01,1.47.03,2.08.02.61.05,1.2.08,1.78-.16-.02-.33-.03-.52-.03h-1.27c-.19,0-.36,0-.52.03.04-.58.07-1.17.08-1.78.02-.6.03-1.3.03-2.08v-3.52c0-.27,0-.52,0-.75"/><path class="cls-1" d="M111.54,15.52c-.08-.24-.21-.43-.39-.56-.17-.13-.4-.21-.68-.25-.28-.04-.61-.06-.99-.06-.03,1.28-.04,2.55-.04,3.83.06,0,.11.02.16.02.05,0,.1,0,.15,0,.62,0,1.09-.17,1.42-.5.33-.33.49-.84.49-1.51,0-.41-.04-.74-.13-.99M109.44,19.1v.58c0,.78,0,1.47.03,2.08.02.61.05,1.2.08,1.78-.16-.02-.33-.03-.52-.03h-1.27c-.19,0-.36,0-.52.03.04-.58.07-1.18.08-1.78.02-.6.03-1.3.03-2.08v-1.91c0-.78-.01-1.47-.03-2.08-.02-.61-.05-1.21-.08-1.82.16.02.33.03.52.05.19.01.4.02.63.02.25,0,.54-.01.87-.03.32-.02.73-.03,1.2-.03.36,0,.66,0,.92.03.25.02.47.05.65.08.18.04.34.09.48.15.14.06.26.13.39.22.28.21.5.46.67.77.16.31.25.67.25,1.09,0,.69-.19,1.24-.56,1.67-.38.43-.92.74-1.62.92.45.8.93,1.59,1.45,2.39.52.79,1.03,1.58,1.55,2.36-.22-.02-.43-.03-.63-.03h-1.27c-.21,0-.42,0-.64.03l-2.52-4.43h-.13Z"/><path class="cls-1" d="M118.99,23.53c-.52-.13-.97-.34-1.36-.63-.39-.3-.69-.68-.91-1.14-.22-.47-.33-1.03-.33-1.7,0-.38,0-.71,0-1.01,0-.3,0-.57,0-.82s0-.5,0-.73c0-.23,0-.48,0-.73,0-.76,0-1.37-.01-1.84,0-.47-.02-.82-.04-1.06.19.02.38.03.58.05.2.01.39.02.58.02s.38,0,.58-.02c.2-.01.39-.03.58-.05-.09.91-.15,1.76-.17,2.54-.02.78-.03,1.58-.03,2.39,0,.85.06,1.54.18,2.07.12.53.3.93.54,1.22.24.29.53.48.88.57s.75.14,1.21.14c.56,0,1-.14,1.32-.42.32-.28.56-.66.72-1.13.16-.47.26-1.01.3-1.61.04-.61.06-1.24.06-1.89s-.01-1.29-.03-1.94c-.02-.64-.05-1.29-.08-1.93.13.02.26.03.38.05s.23.02.34.02c.12,0,.24,0,.35-.02.11-.01.23-.03.35-.05-.02.21-.04.48-.06.83-.02.35-.04.75-.06,1.2-.02.45-.03.96-.05,1.51s-.02,1.13-.02,1.74c0,1.63-.35,2.8-1.06,3.51-.7.71-1.74,1.06-3.1,1.06-.6,0-1.16-.06-1.68-.19"/><path class="cls-1" d="M128.54,20.38c-.07,1.05-.15,2.1-.23,3.15-.11-.02-.23-.03-.34-.03h-.65c-.11,0-.22,0-.33.03.3-1.61.57-3.22.8-4.81.24-1.6.45-3.21.65-4.86.1.02.2.04.29.05s.18.02.29.02c.08,0,.17,0,.27-.02.09-.01.19-.03.3-.05.25.56.52,1.14.79,1.72.28.58.55,1.16.83,1.74.28.58.55,1.14.83,1.7.28.55.54,1.08.8,1.58.56-1.05,1.12-2.15,1.68-3.3.56-1.15,1.09-2.29,1.6-3.43.24.05.44.07.61.07.16,0,.36-.02.59-.07.09.81.19,1.68.3,2.6.11.93.21,1.84.32,2.72.1.89.21,1.72.31,2.49.1.77.2,1.39.28,1.86-.19-.02-.38-.03-.57-.03h-1.15c-.2,0-.39,0-.59.03-.05-.97-.12-2.01-.23-3.14-.11-1.13-.22-2.24-.33-3.35h-.03c-.53,1.11-1.06,2.2-1.58,3.27-.52,1.07-1.03,2.14-1.53,3.22-.05,0-.09-.02-.13-.02-.04,0-.09,0-.13,0s-.09,0-.13,0c-.04,0-.09.01-.13.02-.51-1.05-1.01-2.1-1.51-3.15-.5-1.05-1.02-2.12-1.56-3.2h-.03c-.15,1.08-.26,2.15-.34,3.2"/><path class="cls-2" d="M39.72,32.95c.12,0,.26.01.4.01.23,0,.47-.03.71-.08s.47-.14.68-.27c.21-.13.38-.3.51-.52.14-.22.2-.49.2-.82,0-.29-.05-.53-.16-.71-.11-.19-.24-.34-.41-.45-.17-.11-.35-.19-.55-.23-.2-.04-.39-.06-.59-.06-.26,0-.47,0-.64.02-.17.01-.31.02-.43.04-.01.41-.03.81-.04,1.21-.01.4-.02.8-.02,1.19v.63c.1.02.22.04.34.04M38.45,30.85c-.02-.47-.04-.95-.06-1.43.21.01.42.03.63.04.21.01.42.02.63.02s.42,0,.63-.03c.21-.02.42-.03.63-.03.31,0,.6.03.89.09.28.06.52.16.74.29.21.14.38.32.5.54.12.22.18.5.18.83,0,.35-.08.66-.24.91-.16.25-.35.46-.58.63-.23.17-.47.3-.74.39-.26.09-.5.15-.71.18.09.11.21.27.37.46.15.2.33.42.52.66.19.24.39.49.6.75.21.26.41.51.6.75.19.24.37.46.54.66.17.2.31.35.41.45-.11-.01-.22-.02-.33-.02h-.65c-.11,0-.22,0-.32.02-.11-.15-.28-.39-.5-.7-.23-.31-.47-.64-.75-1-.27-.35-.55-.71-.84-1.06-.28-.35-.54-.65-.78-.89h-.42v.81c0,.49,0,.97.03,1.44.02.47.04.94.06,1.39-.17-.01-.35-.02-.54-.02s-.37,0-.54.02c.02-.46.04-.92.06-1.39.02-.47.03-.95.03-1.44v-1.9c0-.49,0-.96-.03-1.43"/><path class="cls-2" d="M51.93,32.19c-.19.12-.34.28-.47.47-.12.19-.21.39-.28.62-.06.23-.1.44-.12.64.23,0,.47.01.71.02.25,0,.49,0,.72,0s.49,0,.74,0c.25,0,.49-.02.73-.02,0-.2-.02-.41-.05-.63-.03-.22-.1-.43-.2-.62-.1-.19-.24-.35-.42-.47-.18-.13-.41-.19-.7-.19-.27,0-.5.06-.69.19M50.71,32.42c.43-.52,1.06-.77,1.89-.77.39,0,.73.06,1.01.18.28.12.52.28.71.49.19.2.33.44.42.71.09.27.14.56.14.87,0,.07,0,.15,0,.22,0,.07,0,.14-.02.22-.4,0-.79-.01-1.18-.02-.39,0-.78-.01-1.18-.01-.24,0-.49,0-.72.01-.24,0-.48.02-.72.02,0,.04-.01.09-.01.17v.14c0,.29.04.56.13.81.08.25.21.47.37.65.16.18.36.32.6.43.24.11.51.16.82.16.15,0,.3-.02.45-.06.15-.04.31-.1.45-.17.15-.07.29-.15.42-.25.13-.1.24-.2.34-.31l.06.03-.07.54c-.22.18-.5.33-.82.45-.33.12-.67.19-1.02.19-.4,0-.76-.06-1.09-.18-.33-.12-.61-.3-.85-.53-.24-.23-.42-.51-.55-.82-.13-.32-.19-.66-.19-1.03,0-.91.22-1.62.65-2.13"/><path class="cls-2" d="M61.66,31.04c0-.3,0-.59-.02-.87,0-.29-.02-.56-.03-.82-.01-.26-.02-.49-.04-.67.21.04.37.06.5.06s.29-.02.5-.06c-.01.18-.03.4-.04.66-.01.26-.02.53-.03.81,0,.28-.01.57-.02.86,0,.29,0,.55,0,.8v.84h.02c.21-.32.45-.56.74-.74.29-.17.63-.26,1.03-.26.21,0,.42.03.63.09.21.06.4.16.57.3.17.14.31.34.42.59.11.25.16.56.16.95,0,.32,0,.64-.02.98-.01.34-.02.69-.02,1.07v.72c0,.12,0,.23,0,.35,0,.11,0,.22.02.33-.15-.01-.31-.02-.47-.02s-.31,0-.46.02c.01-.38.03-.78.05-1.18.02-.41.03-.82.03-1.25v-.68c0-.55-.11-.97-.32-1.26-.21-.28-.51-.42-.88-.42-.52,0-.89.16-1.13.47-.24.32-.36.76-.36,1.34,0,.21,0,.45,0,.72,0,.27,0,.55.02.82,0,.28.02.54.03.8.01.26.02.47.04.63-.17-.01-.34-.02-.5-.02s-.33,0-.5.02c.01-.17.03-.38.04-.64.01-.26.02-.53.03-.82,0-.29.01-.58.02-.87,0-.29,0-.57,0-.82v-2c0-.25,0-.52,0-.82"/><path class="cls-2" d="M74,35.6c.09.29.21.52.35.69.14.17.31.29.49.36.18.07.36.1.54.1.29,0,.53-.07.74-.22.21-.14.38-.33.51-.56.14-.23.24-.5.3-.79.06-.3.09-.59.09-.88,0-.71-.14-1.25-.41-1.62-.27-.37-.68-.56-1.21-.56-.26,0-.5.06-.69.18-.19.12-.36.29-.49.51-.13.22-.22.47-.29.76-.06.29-.09.6-.09.93,0,.44.05.81.14,1.09M77,35.96c-.06.12-.14.25-.24.38-.1.14-.22.26-.38.38-.15.12-.33.21-.54.29-.21.07-.45.11-.72.11s-.56-.05-.82-.14c-.27-.09-.51-.25-.72-.47-.21-.22-.38-.5-.51-.84-.13-.34-.19-.75-.19-1.23s.07-.88.21-1.23c.14-.35.32-.64.55-.87.23-.23.48-.4.76-.52.28-.11.57-.17.86-.17.82,0,1.39.37,1.7,1.11h.02v-1.08c0-.28,0-.56,0-.85,0-.28,0-.55-.01-.81,0-.26,0-.5-.01-.73,0-.23,0-.43-.02-.61.09.01.17.03.25.04.08.01.16.02.24.02s.16,0,.24-.02c.08-.01.16-.02.26-.04-.02.24-.04.58-.06,1.02-.01.45-.03.94-.04,1.48-.01.54-.02,1.09-.03,1.66,0,.57-.01,1.09-.01,1.56,0,.51,0,.97.01,1.37,0,.4.01.82.02,1.25-.15-.01-.29-.02-.43-.02-.13,0-.27,0-.42.02l.03-1.05h-.02Z"/><path class="cls-2" d="M86.35,32.19c-.19.12-.34.28-.47.47-.12.19-.21.39-.28.62-.06.23-.1.44-.12.64.23,0,.47.01.71.02.25,0,.49,0,.72,0s.49,0,.74,0c.25,0,.49-.02.73-.02,0-.2-.02-.41-.05-.63-.03-.22-.1-.43-.2-.62-.1-.19-.24-.35-.41-.47-.18-.13-.41-.19-.7-.19-.27,0-.5.06-.69.19M85.14,32.42c.43-.52,1.06-.77,1.89-.77.39,0,.73.06,1.01.18.28.12.52.28.71.49.19.2.33.44.43.71.09.27.14.56.14.87,0,.07,0,.15,0,.22,0,.07,0,.14-.02.22-.4,0-.79-.01-1.18-.02-.39,0-.79-.01-1.18-.01-.24,0-.48,0-.72.01-.24,0-.48.02-.72.02,0,.04-.01.09-.01.17v.14c0,.29.04.56.13.81.08.25.21.47.37.65.16.18.36.32.6.43.24.11.51.16.82.16.15,0,.3-.02.45-.06.15-.04.31-.1.45-.17.15-.07.28-.15.41-.25.13-.1.24-.2.34-.31l.06.03-.07.54c-.22.18-.5.33-.82.45-.33.12-.67.19-1.02.19-.4,0-.76-.06-1.09-.18-.33-.12-.61-.3-.85-.53-.24-.23-.42-.51-.55-.82-.13-.32-.19-.66-.19-1.03,0-.91.22-1.62.65-2.13"/><path class="cls-2" d="M99.29,32.65c-.21-.28-.51-.43-.89-.43-.52,0-.89.16-1.13.47-.24.32-.36.76-.36,1.34v.94c0,.33,0,.68.02,1.04.01.37.04.7.07.99-.17-.01-.34-.02-.5-.02s-.33,0-.5.02c.04-.29.06-.62.07-.99.01-.37.02-.71.02-1.04v-1.15c0-.33,0-.68-.02-1.05-.01-.37-.04-.71-.07-1.02.21.04.37.05.5.05.06,0,.12,0,.19-.02.07-.01.15-.02.25-.04-.02.29-.03.59-.03.88h.02c.21-.32.46-.56.74-.74.29-.17.63-.26,1.03-.26.21,0,.42.03.63.09.21.06.4.16.57.31.17.14.31.34.42.59.11.25.16.56.16.95,0,.32,0,.64-.02.98-.01.34-.02.69-.02,1.07v.72c0,.12,0,.23,0,.35,0,.11,0,.22.02.33-.15-.01-.31-.02-.47-.02s-.31,0-.46.02c.01-.38.03-.78.05-1.18.02-.4.03-.82.03-1.25v-.67c0-.55-.11-.97-.32-1.26"/></g></svg>