<?xml version="1.0" encoding="UTF-8"?><svg id="Ebene_2" xmlns="http://www.w3.org/2000/svg" viewBox="0 0 87.12 37.13"><defs><style>.cls-1{fill:#7bb0e7;}.cls-2{fill:#4d4d4c;}</style></defs><g id="Ebene_1-2"><path class="cls-2" d="M18.77,30.88c-.02-.47-.04-.94-.06-1.41.33.02.66.03.98.04.32.01.65.02.98.02s.66,0,.98-.02c.32-.01.65-.02.98-.04-.02.11-.03.22-.03.33s.01.22.03.33c-.24-.02-.45-.03-.64-.04-.19-.01-.4-.03-.61-.04-.22-.01-.45-.03-.71-.04-.26-.01-.56-.02-.92-.02,0,.23-.02.46-.03.67-.01.21-.02.45-.02.72,0,.28,0,.56,0,.83,0,.27,0,.48,0,.61.32,0,.61,0,.87-.01.26,0,.49-.02.7-.03.21-.01.41-.02.59-.03.18-.01.35-.02.51-.04-.02.11-.03.22-.03.34,0,.11.01.22.03.33-.19-.02-.41-.04-.66-.05-.25-.02-.5-.02-.76-.03-.25,0-.49,0-.71-.01-.22,0-.4,0-.53,0,0,.07,0,.14,0,.21,0,.08,0,.17,0,.29v1.09c0,.42,0,.76,0,1.03,0,.27,0,.48.02.62h.77c.28,0,.55,0,.82-.02.27-.01.52-.03.76-.04.24-.02.44-.05.62-.08-.01.05-.02.11-.03.17,0,.06,0,.12,0,.17,0,.12.01.21.03.29-.33-.01-.66-.02-.98-.02h-1.99c-.33,0-.66,0-1,.02.02-.47.04-.94.06-1.4.02-.47.03-.94.03-1.42v-1.89c0-.48-.01-.96-.03-1.43"/><path class="cls-2" d="M25.42,31.09c0-.29,0-.58-.02-.87,0-.29-.02-.56-.03-.82-.01-.26-.02-.48-.04-.66.2.04.37.06.49.06s.29-.02.49-.06c-.01.18-.03.41-.04.66-.01.26-.02.53-.03.82,0,.28-.01.58-.02.87,0,.29,0,.56,0,.81v1.99c0,.25,0,.52,0,.81,0,.29,0,.58.02.87,0,.28.02.56.03.81s.02.47.04.64c-.17-.01-.33-.02-.49-.02s-.33,0-.49.02c.01-.17.03-.38.04-.64s.02-.53.03-.81c0-.29.01-.58.02-.87,0-.29,0-.56,0-.81v-1.99c0-.25,0-.52,0-.81"/><path class="cls-2" d="M29.57,33.85c0-.33,0-.67-.02-1.04-.01-.36-.03-.7-.07-1.01.2.04.37.05.49.05s.29-.02.49-.05c-.04.32-.06.65-.07,1.01-.01.36-.02.71-.02,1.04v1.14c0,.33,0,.67.02,1.04.01.36.03.69.07.98-.17-.01-.33-.02-.49-.02s-.33,0-.49.02c.04-.29.06-.62.07-.98.01-.36.02-.71.02-1.04v-1.14ZM29.42,29.89c0-.15.06-.29.17-.39.11-.11.24-.16.39-.16s.28.05.4.16c.11.11.17.24.17.39s-.06.28-.17.39c-.11.11-.24.16-.4.16s-.29-.05-.39-.16c-.11-.11-.17-.24-.17-.39"/><path class="cls-2" d="M33.55,36.24c.08.09.17.17.27.25.11.08.23.14.36.19.13.05.28.08.43.08.14,0,.27-.02.4-.07.13-.04.24-.11.34-.19.1-.08.18-.18.24-.31.06-.12.09-.27.09-.43,0-.23-.06-.4-.19-.52-.13-.12-.29-.22-.48-.3-.19-.08-.4-.14-.62-.2-.23-.06-.44-.14-.63-.25-.19-.11-.35-.25-.48-.42-.13-.18-.19-.42-.19-.73,0-.24.04-.46.12-.66.08-.2.2-.38.35-.52.15-.15.34-.26.57-.34.23-.08.49-.13.78-.13.27,0,.5.04.68.11.19.07.36.14.53.2-.06.11-.11.24-.16.4-.05.16-.08.29-.1.37h-.13c-.06-.18-.17-.33-.34-.47-.17-.14-.38-.21-.63-.21-.11,0-.22.02-.33.05-.11.04-.21.09-.3.16-.09.07-.16.17-.22.29-.06.12-.09.26-.09.42,0,.23.06.42.19.54.13.13.29.23.48.3.19.07.4.14.63.19.23.05.44.13.62.23.19.1.35.24.48.41.13.18.19.42.19.72,0,.21-.05.42-.14.63-.09.21-.22.39-.4.55-.17.16-.38.29-.62.38-.24.09-.52.14-.82.14-.34,0-.62-.03-.85-.1-.23-.06-.42-.14-.57-.23.04-.1.09-.23.14-.39.05-.16.07-.3.07-.41h.13c.04.07.09.15.17.24"/><path class="cls-2" d="M41.62,34.28c-.12.04-.27.08-.43.11-.16.03-.33.06-.5.09-.17.03-.33.08-.5.13-.17.05-.31.12-.44.21-.13.09-.23.2-.31.33-.08.13-.12.3-.12.51,0,.34.1.6.3.78.2.18.42.26.66.26.28,0,.53-.08.76-.23.23-.15.41-.33.53-.54l.04-1.65ZM38.91,32.33c.33-.25.63-.42.91-.51.28-.09.56-.13.86-.13.26,0,.51.04.72.12.22.08.41.19.56.33.15.14.27.31.36.52.09.2.13.42.13.66,0,.42,0,.83-.02,1.25-.01.41-.02.85-.02,1.31,0,.09,0,.18,0,.28,0,.1.02.19.05.26.03.08.07.14.13.19.06.05.14.08.25.08.04,0,.08,0,.11,0,.04,0,.08-.02.12-.04v.24c-.08.04-.18.07-.3.09-.12.02-.26.03-.4.03-.23,0-.41-.06-.54-.18-.12-.12-.2-.28-.22-.47-.26.26-.52.46-.78.58-.26.12-.57.19-.94.19-.18,0-.36-.03-.54-.08-.18-.05-.33-.13-.47-.25-.14-.12-.25-.26-.33-.42-.08-.16-.13-.35-.13-.57,0-.44.14-.78.41-1.02.27-.24.65-.4,1.14-.48.4-.07.7-.12.93-.17.22-.05.39-.1.49-.15.11-.05.17-.11.19-.18.02-.07.03-.16.03-.27,0-.18-.02-.36-.07-.53-.04-.17-.11-.31-.21-.44-.1-.12-.22-.23-.37-.3-.15-.08-.34-.12-.56-.12-.29,0-.57.07-.82.2-.25.13-.44.32-.57.55h-.12v-.57Z"/><path class="cls-2" d="M49.23,34.24c0-.34-.04-.63-.13-.89s-.19-.48-.33-.65c-.14-.18-.29-.31-.47-.4-.18-.09-.36-.14-.55-.14-.23,0-.44.04-.65.13-.21.08-.39.22-.54.42-.15.2-.28.45-.37.76-.09.31-.14.69-.14,1.15,0,1.47.53,2.21,1.6,2.21.23,0,.44-.06.62-.18.19-.12.36-.29.5-.52.14-.23.25-.5.34-.81.08-.31.12-.67.12-1.05M50.19,34.27c0,.42-.06.81-.19,1.16-.13.35-.3.65-.53.9-.22.25-.49.45-.79.58-.3.13-.63.2-.98.2s-.67-.08-.95-.23c-.28-.15-.5-.33-.64-.54-.26.21-.51.42-.74.64h-.2c.01-.17.03-.39.04-.64.01-.25.02-.51.03-.8,0-.28.01-.57.02-.86,0-.29,0-.56,0-.81v-1.99c0-.25,0-.52,0-.81,0-.29,0-.58-.02-.87,0-.29-.02-.56-.03-.82-.01-.26-.02-.48-.04-.66.2.04.37.06.49.06.08,0,.17,0,.25-.02.09-.01.18-.02.28-.04-.02.15-.04.38-.06.7-.01.32-.02.67-.03,1.06,0,.39-.01.8-.02,1.21,0,.41-.01.79-.02,1.12h.02c.25-.39.52-.68.82-.87.3-.18.65-.28,1.04-.28s.71.07.99.21c.28.14.51.33.69.57s.32.51.41.82c.09.31.14.64.14.98"/><path class="cls-2" d="M54.67,32.04c-.27,0-.5.06-.69.19-.19.12-.34.28-.46.47-.12.19-.21.39-.27.62s-.1.43-.11.63c.23,0,.46.02.71.02.24,0,.48.01.72.01s.49,0,.74-.01c.25,0,.49-.01.72-.02,0-.2-.02-.41-.05-.63-.03-.22-.1-.42-.2-.61-.1-.19-.24-.35-.41-.47-.18-.12-.41-.19-.69-.19M52.14,34.58c0-.9.21-1.61.64-2.12.43-.51,1.05-.77,1.87-.77.39,0,.72.06,1,.18.28.12.52.28.71.48.19.2.33.44.42.71.09.27.14.56.14.87,0,.07,0,.14,0,.21,0,.07,0,.14-.02.21-.4,0-.79-.01-1.17-.02-.39,0-.78-.01-1.17-.01-.24,0-.48,0-.72.01-.24,0-.48.02-.72.02,0,.04-.01.09-.01.16v.14c0,.29.04.55.13.8.08.25.21.46.37.64.16.18.36.32.59.43.23.11.51.16.81.16.15,0,.3-.02.45-.06.15-.04.3-.1.45-.17.15-.07.28-.15.41-.25.13-.1.24-.2.33-.31l.06.03-.06.54c-.22.18-.49.33-.82.45-.33.12-.66.19-1.01.19-.4,0-.76-.06-1.08-.18-.33-.12-.61-.3-.84-.53-.24-.23-.42-.5-.55-.82-.13-.31-.19-.65-.19-1.02"/><path class="cls-2" d="M60.17,30.33c-.02.28-.04.55-.05.82-.01.27-.03.54-.04.81.08,0,.23,0,.45,0,.22,0,.46-.01.71-.03,0,.02-.01.06-.01.12v.23c0,.05,0,.09.01.11-.1,0-.19-.01-.3-.02-.1,0-.21,0-.33,0h-.54s-.02.15-.03.35c-.01.21-.02.45-.03.73,0,.28-.01.58-.02.88,0,.31,0,.58,0,.82,0,.2,0,.41.02.6.01.2.04.38.1.53.06.16.15.28.26.38.12.09.28.14.51.14.06,0,.14,0,.24-.02.1-.01.19-.03.26-.06v.26c-.12.02-.26.05-.41.08-.15.03-.29.05-.43.05-.46,0-.8-.11-1.02-.34-.22-.23-.33-.56-.33-1,0-.2,0-.41.01-.64,0-.23.02-.48.03-.76.01-.28.02-.58.03-.91s.01-.7.01-1.11h-.35c-.06,0-.12,0-.19,0-.06,0-.14,0-.21.02,0-.04.01-.09.02-.13,0-.04,0-.08,0-.13,0-.04,0-.07,0-.11,0-.04,0-.07-.02-.11.33.02.57.03.72.03,0-.15-.01-.33-.02-.55,0-.22-.01-.45-.03-.68l.91-.38h.06Z"/><path class="cls-2" d="M63.4,31.09c0-.29,0-.58-.02-.87,0-.29-.02-.56-.03-.82-.01-.26-.02-.48-.04-.66.2.04.37.06.49.06s.29-.02.49-.06c-.01.18-.03.4-.04.66-.01.26-.02.53-.03.81,0,.28-.01.57-.02.85,0,.28,0,.55,0,.79v.83h.02c.2-.31.45-.56.74-.73.29-.17.62-.26,1.02-.26.21,0,.41.03.62.09.21.06.4.16.57.3.17.14.31.34.41.58.11.24.16.56.16.94,0,.31,0,.64-.02.97-.01.33-.02.69-.02,1.06v.71c0,.12,0,.23,0,.35,0,.11,0,.22.02.32-.15-.01-.3-.02-.46-.02s-.3,0-.45.02c.01-.38.03-.77.05-1.17.02-.4.03-.82.03-1.24v-.67c0-.55-.11-.96-.32-1.24-.21-.28-.51-.42-.88-.42-.51,0-.89.16-1.12.47-.24.32-.36.76-.36,1.33,0,.2,0,.44,0,.71,0,.27,0,.54.02.82,0,.27.02.54.03.8.01.26.02.46.04.62-.17-.01-.33-.02-.49-.02s-.33,0-.49.02c.01-.17.03-.38.04-.64.01-.26.02-.53.03-.81,0-.29.01-.58.02-.87,0-.29,0-.56,0-.81v-1.99c0-.25,0-.52,0-.81"/><path class="cls-1" d="M2.63,15.46c0-.23-.02-.39-.04-.5-.14,0-.32,0-.52.01-.21,0-.43.02-.67.04-.24.01-.48.03-.72.06-.24.02-.47.05-.68.08.02-.1.03-.21.05-.31.01-.1.02-.21.02-.31s0-.21-.02-.31c-.01-.1-.03-.21-.05-.31.32,0,.61.02.87.03.26,0,.52.02.79.02.27,0,.56.01.88.01.32,0,.7,0,1.14,0s.82,0,1.14,0c.32,0,.61,0,.87-.01.26,0,.52-.01.77-.02.25,0,.52-.02.81-.03-.02.1-.04.21-.05.31s-.02.21-.02.31,0,.21.02.31.03.21.05.31c-.19-.03-.4-.05-.64-.08-.24-.02-.47-.04-.7-.06-.23-.01-.45-.03-.66-.04-.21,0-.38-.01-.52-.01-.01.05-.02.11-.02.2,0,.08,0,.18,0,.3v4.29c0,.78,0,1.48.03,2.09.02.61.05,1.2.08,1.79-.16-.02-.34-.03-.52-.03h-1.27c-.19,0-.36,0-.52.03.04-.59.07-1.18.09-1.79.02-.61.03-1.31.03-2.09v-3.54c0-.27,0-.52,0-.75"/><path class="cls-1" d="M10.76,16.56c-.24.57-.48,1.12-.69,1.68-.22.55-.43,1.12-.64,1.69h2.59c-.21-.58-.41-1.14-.62-1.69-.2-.55-.42-1.11-.64-1.68M15.77,23.63c-.23-.02-.44-.03-.64-.03h-1.2c-.2,0-.4,0-.6.03-.15-.46-.31-.93-.47-1.41-.16-.48-.33-.96-.51-1.44-.3-.01-.6-.02-.91-.02-.3,0-.6,0-.91,0-.25,0-.49,0-.74,0-.25,0-.49.01-.74.02-.19.48-.36.96-.52,1.44-.16.48-.31.95-.44,1.41-.11-.02-.22-.03-.33-.03h-.67c-.11,0-.24,0-.37.03.11-.24.26-.59.45-1.02.19-.43.4-.93.62-1.47.23-.55.47-1.13.73-1.76.26-.63.52-1.26.78-1.9.26-.64.51-1.27.76-1.9s.48-1.2.69-1.74c.1.02.18.03.27.05s.18.02.27.02.18,0,.27-.02.17-.03.27-.05c.3.8.63,1.66.97,2.58.34.92.69,1.81,1.04,2.7.35.88.69,1.72,1.02,2.51.33.79.63,1.46.91,2.01"/><path class="cls-1" d="M23.54,14.99c-.45-.26-1-.39-1.66-.39-.43,0-.87.09-1.3.28-.43.18-.81.46-1.15.83-.34.37-.61.83-.81,1.38-.21.55-.31,1.2-.31,1.95,0,.57.08,1.09.23,1.57.16.48.38.9.67,1.25.29.35.65.63,1.08.83.43.2.91.3,1.46.3.12,0,.26,0,.42-.02.16-.01.31-.03.45-.05.15-.02.28-.05.4-.08.12-.03.21-.07.27-.11.02-.11.03-.25.03-.42s0-.36,0-.57c0-.76-.01-1.33-.04-1.69-.03-.36-.05-.61-.06-.74.09.02.22.03.38.05.16.01.38.02.67.02.34,0,.59,0,.76-.02.17-.01.3-.03.39-.05-.02.07-.03.2-.05.37-.01.17-.03.37-.03.59,0,.22-.02.46-.02.71,0,.25,0,.49,0,.72v.47c0,.24,0,.46,0,.66,0,.2.02.35.03.43-.62.18-1.25.32-1.89.42-.64.1-1.27.16-1.89.16-.81,0-1.56-.11-2.24-.32-.68-.21-1.27-.52-1.77-.93-.5-.41-.88-.91-1.16-1.49-.28-.58-.42-1.23-.42-1.96,0-.9.15-1.68.45-2.36.3-.68.71-1.24,1.23-1.69.52-.45,1.14-.79,1.86-1.01.72-.23,1.49-.34,2.32-.34.72,0,1.34.07,1.86.22.52.15,1.04.36,1.55.63-.07.25-.15.49-.22.72-.07.24-.13.48-.18.72h-.2c-.3-.42-.68-.77-1.13-1.03"/><path class="cls-1" d="M27.45,15.74c-.02-.61-.05-1.22-.08-1.83.42,0,.84.02,1.26.04.42.02.84.03,1.26.03.7,0,1.32,0,1.86-.02.54-.01.91-.03,1.1-.05-.04.15-.06.35-.06.59,0,.15,0,.27.01.35,0,.09.02.18.04.28-.27-.02-.57-.04-.9-.06-.33-.02-.64-.04-.95-.06-.31-.02-.58-.03-.83-.04-.25-.01-.42-.01-.52-.01-.04.52-.06,1.03-.06,1.54,0,.51,0,1.02,0,1.54.61,0,1.17-.02,1.66-.04.49-.02,1.01-.04,1.55-.07-.03.16-.05.28-.06.37,0,.08-.01.17-.01.27,0,.08,0,.15.02.23.01.08.03.2.05.35-1.08-.09-2.15-.13-3.21-.13,0,.3,0,.6,0,.91,0,.3,0,.6,0,.91,0,.61.02,1.2.04,1.77.54,0,1.08-.01,1.61-.04.54-.03,1.08-.07,1.63-.14-.02.1-.03.2-.04.28,0,.09-.01.2-.01.35s0,.27.01.35c0,.08.02.16.04.21-.25,0-.57-.02-.94-.02-.37,0-.88,0-1.54,0h-2.24c-.21,0-.37,0-.48,0-.11,0-.2.01-.28.02.04-.59.07-1.18.08-1.79.02-.61.03-1.31.03-2.09v-1.93c0-.78,0-1.48-.03-2.09"/><path class="cls-1" d="M37.15,14.6c-.43,0-.79.13-1.06.38-.27.25-.41.55-.41.89s.11.64.32.86c.21.22.48.42.8.6.32.18.67.35,1.03.52.37.16.71.37,1.03.61.32.24.59.53.8.88.21.34.32.79.32,1.32,0,.47-.09.9-.27,1.3-.18.39-.43.73-.76,1.01-.33.28-.73.49-1.18.64-.46.15-.97.22-1.54.22-.51,0-.97-.05-1.37-.16-.4-.11-.71-.24-.91-.4.1-.33.17-.63.24-.91.07-.27.12-.57.17-.89h.27c.04.21.11.4.21.59.1.18.24.35.4.49.16.14.35.25.58.33.23.08.48.12.76.12.57,0,.98-.14,1.25-.43.27-.28.4-.62.4-1.02,0-.36-.1-.65-.31-.88-.21-.23-.47-.43-.78-.6-.31-.17-.65-.34-1.02-.51-.37-.16-.71-.37-1.02-.6-.31-.24-.57-.53-.78-.87-.21-.34-.31-.78-.31-1.32,0-.49.09-.93.26-1.3.17-.38.41-.69.7-.95.29-.25.63-.45,1.01-.58.38-.13.79-.2,1.21-.2.51,0,.96.06,1.34.18.38.12.71.29.98.51-.08.22-.16.43-.22.63-.06.2-.14.46-.23.77h-.21c-.3-.81-.87-1.22-1.71-1.22"/><path class="cls-1" d="M45.85,16.62c0-.36-.04-.66-.12-.91-.08-.25-.19-.44-.33-.59-.14-.15-.3-.25-.48-.32-.18-.07-.38-.1-.57-.1h-.47s-.09,0-.13.01c-.01.68-.02,1.35-.02,2,0,.66,0,1.31,0,1.98.24,0,.48-.02.73-.07.25-.05.48-.14.69-.29.21-.15.38-.36.51-.63.13-.27.2-.64.2-1.09M41.63,17.82c0-.78,0-1.48-.03-2.09-.02-.61-.05-1.22-.08-1.83.16.02.33.03.52.05.19.01.4.02.64.02.33,0,.67-.01,1.03-.03.35-.02.7-.03,1.04-.03.67,0,1.19.05,1.57.15.38.1.67.24.89.43.3.25.52.52.67.82.14.3.21.67.21,1.09,0,.54-.09,1-.27,1.39-.18.39-.43.7-.76.94-.33.24-.71.42-1.15.53-.44.11-.93.17-1.46.17h-.72c0,.71,0,1.41.02,2.12.01.7.04,1.4.09,2.09-.16-.02-.34-.03-.52-.03h-1.28c-.19,0-.36,0-.52.03.04-.59.07-1.18.08-1.79.02-.61.03-1.31.03-2.09v-1.93Z"/><path class="cls-1" d="M49.48,15.74c-.02-.61-.05-1.22-.08-1.83.42,0,.84.02,1.26.04.42.02.83.03,1.26.03.7,0,1.32,0,1.86-.02.54-.01.91-.03,1.1-.05-.04.15-.06.35-.06.59,0,.15,0,.27.01.35,0,.09.02.18.04.28-.27-.02-.57-.04-.9-.06-.33-.02-.64-.04-.95-.06-.31-.02-.58-.03-.83-.04-.24-.01-.42-.01-.52-.01-.04.52-.06,1.03-.06,1.54,0,.51,0,1.02,0,1.54.61,0,1.17-.02,1.66-.04.5-.02,1.01-.04,1.55-.07-.03.16-.05.28-.06.37,0,.08-.01.17-.01.27,0,.08,0,.15.02.23.01.08.03.2.05.35-1.08-.09-2.15-.13-3.21-.13v.72c0,.78,0,1.48.03,2.09.02.61.05,1.2.08,1.79-.16-.02-.33-.03-.52-.03h-1.27c-.19,0-.36,0-.52.03.04-.59.07-1.18.08-1.79.02-.61.03-1.31.03-2.09v-1.93c0-.78,0-1.48-.03-2.09"/><path class="cls-1" d="M56.68,15.74c-.02-.61-.05-1.22-.08-1.83.16.02.33.03.52.05.19.01.4.02.64.02s.45,0,.64-.02c.19-.01.36-.03.52-.05-.04.61-.06,1.22-.08,1.83s-.03,1.31-.03,2.09v1.93c0,.54,0,1.06,0,1.56,0,.5.01.93.02,1.3.54,0,1.08-.01,1.61-.04.54-.03,1.08-.07,1.63-.14-.02.1-.03.2-.04.28,0,.09-.01.2-.01.35s0,.27.01.35c0,.08.02.16.04.21-.26,0-.57-.02-.94-.02-.37,0-.88,0-1.53,0h-2.24c-.21,0-.37,0-.48,0-.11,0-.2.01-.28.02.04-.59.07-1.18.08-1.79.02-.61.03-1.31.03-2.09v-1.93c0-.78,0-1.48-.03-2.09"/><path class="cls-1" d="M63.63,15.74c-.02-.61-.05-1.22-.08-1.83.42,0,.85.02,1.26.04.42.02.84.03,1.26.03.7,0,1.32,0,1.86-.02.54-.01.91-.03,1.1-.05-.04.15-.06.35-.06.59,0,.15,0,.27.01.35,0,.09.02.18.04.28-.27-.02-.57-.04-.9-.06-.33-.02-.64-.04-.95-.06-.31-.02-.58-.03-.83-.04-.25-.01-.42-.01-.52-.01-.04.52-.06,1.03-.06,1.54,0,.51,0,1.02,0,1.54.61,0,1.17-.02,1.66-.04.5-.02,1.01-.04,1.55-.07-.03.16-.05.28-.06.37,0,.08-.01.17-.01.27,0,.08,0,.15.02.23.01.08.03.2.05.35-1.08-.09-2.15-.13-3.21-.13,0,.3,0,.6,0,.91,0,.3,0,.6,0,.91,0,.61.01,1.2.04,1.77.54,0,1.08-.01,1.61-.04.54-.03,1.08-.07,1.63-.14-.02.1-.03.2-.04.28,0,.09-.01.2-.01.35s0,.27.01.35c0,.08.02.16.04.21-.25,0-.57-.02-.94-.02-.37,0-.88,0-1.54,0h-2.25c-.21,0-.37,0-.48,0-.11,0-.2.01-.28.02.04-.59.07-1.18.08-1.79.02-.61.03-1.31.03-2.09v-1.93c0-.78,0-1.48-.03-2.09"/><path class="cls-1" d="M77.82,14.99c-.45-.26-1-.39-1.66-.39-.43,0-.87.09-1.3.28-.43.18-.81.46-1.15.83-.34.37-.61.83-.81,1.38-.21.55-.31,1.2-.31,1.95,0,.57.08,1.09.23,1.57.16.48.38.9.67,1.25.29.35.65.63,1.08.83.42.2.91.3,1.46.3.12,0,.26,0,.42-.02.16-.01.31-.03.45-.05.15-.02.28-.05.4-.08.12-.03.21-.07.27-.11.02-.11.03-.25.03-.42,0-.17,0-.36,0-.57,0-.76-.01-1.33-.04-1.69-.03-.36-.05-.61-.06-.74.09.02.22.03.38.05.16.01.38.02.67.02.34,0,.59,0,.76-.02.16-.01.29-.03.39-.05-.02.07-.04.2-.05.37-.01.17-.03.37-.04.59,0,.22-.02.46-.02.71,0,.25,0,.49,0,.72v.47c0,.24,0,.46,0,.66,0,.2.02.35.03.43-.62.18-1.25.32-1.89.42-.64.1-1.27.16-1.89.16-.81,0-1.56-.11-2.24-.32-.69-.21-1.27-.52-1.77-.93-.49-.41-.88-.91-1.16-1.49-.28-.58-.42-1.23-.42-1.96,0-.9.15-1.68.45-2.36.3-.68.71-1.24,1.23-1.69.52-.45,1.14-.79,1.86-1.01.72-.23,1.49-.34,2.32-.34.72,0,1.34.07,1.86.22.52.15,1.04.36,1.55.63-.08.25-.15.49-.22.72-.07.24-.13.48-.18.72h-.2c-.3-.42-.68-.77-1.13-1.03"/><path class="cls-1" d="M81.73,15.74c-.02-.61-.05-1.22-.08-1.83.42,0,.85.02,1.26.04.41.02.83.03,1.26.03.7,0,1.32,0,1.86-.02s.91-.03,1.1-.05c-.04.15-.06.35-.06.59,0,.15,0,.27.01.35,0,.09.02.18.04.28-.27-.02-.57-.04-.9-.06-.33-.02-.64-.04-.95-.06-.31-.02-.58-.03-.83-.04-.25-.01-.42-.01-.52-.01-.04.52-.06,1.03-.06,1.54,0,.51,0,1.02,0,1.54.61,0,1.17-.02,1.66-.04.49-.02,1.01-.04,1.55-.07-.03.16-.05.28-.06.37,0,.08-.01.17-.01.27,0,.08,0,.15.02.23.01.08.03.2.05.35-1.08-.09-2.15-.13-3.21-.13,0,.3,0,.6,0,.91,0,.3,0,.6,0,.91,0,.61.01,1.2.04,1.77.54,0,1.08-.01,1.61-.04.54-.03,1.08-.07,1.63-.14-.02.1-.03.2-.04.28,0,.09-.01.2-.01.35s0,.27.01.35c0,.08.02.16.04.21-.25,0-.57-.02-.94-.02-.37,0-.88,0-1.54,0h-2.24c-.21,0-.37,0-.48,0-.11,0-.2.01-.28.02.04-.59.07-1.18.08-1.79.02-.61.03-1.31.03-2.09v-1.93c0-.78,0-1.48-.03-2.09"/><path class="cls-1" d="M43.91.07c-.12-.1-.3-.1-.42,0l-4.73,3.87h.96l3.98-3.27,3.98,3.27h.96L43.91.07Z"/><path class="cls-1" d="M43.34,4.79h-.81c-.08,0-.15-.07-.15-.15v-.81c0-.08.07-.15.15-.15h.81c.08,0,.15.07.15.15v.81c0,.08-.07.15-.15.15"/><path class="cls-1" d="M44.88,4.79h-.81c-.08,0-.15-.07-.15-.15v-.81c0-.08.07-.15.15-.15h.81c.08,0,.15.07.15.15v.81c0,.08-.07.15-.15.15"/><path class="cls-1" d="M43.34,6.25h-.81c-.08,0-.15-.07-.15-.15v-.82c0-.08.07-.15.15-.15h.81c.08,0,.15.07.15.15v.82c0,.08-.07.15-.15.15"/><path class="cls-1" d="M44.88,6.25h-.81c-.08,0-.15-.07-.15-.15v-.82c0-.08.07-.15.15-.15h.81c.08,0,.15.07.15.15v.82c0,.08-.07.15-.15.15"/><path class="cls-1" d="M41.69,7.57c0-.09,0-.27,0-.4.01-.11.05-.55-.18-.82-.06-.08-.14-.13-.23-.17,0-.27.02-1.21,0-1.87-.02-.43-.2-.71-.47-.71h-.01c-.49.02-.63.23-.73.45-.01.03-.02.06-.04.08-.13.21-.91,4.11-.89,4.43.02.28.5.94.83,1.35.14-.07.29-.14.44-.2h0c-.36-.46-.77-1.03-.8-1.18,0-.33.71-3.85.83-4.17.02-.04.04-.08.06-.11.05-.11.07-.16.26-.17.02.04.05.12.05.25.03.64,0,1.59,0,1.84-.12.04-.2.1-.25.15-.19.19-.2.45-.2.48,0,.01,0,1.2,0,1.52,0,.24.33.74.67,1.19.16-.05.33-.09.5-.13-.33-.41-.67-.91-.69-1.05,0-.34,0-1.48,0-1.53,0,0,0-.09.06-.14.04-.03.1-.05.18-.05.05,0,.07.02.09.04.08.09.09.34.07.47,0,.01,0,.02,0,.03,0,.04,0,.37.01.48,0,.07.01.16,1.04,1.6.17-.02.35-.05.54-.06h0c-.48-.68-1.01-1.44-1.1-1.61"/><path class="cls-1" d="M47.39,4.14s-.03-.05-.04-.08c-.1-.22-.24-.43-.73-.45-.28,0-.47.27-.49.71-.03.65,0,1.6,0,1.87-.09.03-.17.09-.23.16-.23.27-.19.72-.18.82,0,.12,0,.31,0,.4-.1.17-.62.93-1.1,1.6h0c.18.02.36.04.54.07,1.03-1.44,1.04-1.53,1.04-1.6,0-.11.01-.45.01-.48,0,0,0-.02,0-.03-.02-.14,0-.38.07-.47.02-.02.04-.03.09-.04.08,0,.14.01.18.05.05.05.06.14.06.14,0,.05-.01,1.19,0,1.53-.03.14-.37.64-.69,1.05.17.04.34.08.5.13.34-.45.68-.94.67-1.19,0-.32,0-1.51,0-1.52,0-.03,0-.29-.2-.48-.05-.05-.14-.11-.25-.15,0-.25-.03-1.21,0-1.84,0-.13.03-.22.05-.25.19.01.22.07.26.17.02.03.03.07.06.11.12.33.82,3.84.83,4.17-.03.15-.44.73-.8,1.18h0c.15.07.3.14.44.21.33-.42.82-1.07.83-1.35.02-.32-.76-4.22-.89-4.43"/><path class="cls-1" d="M44.35,9.19v-1.98c0-.25-.2-.45-.45-.45h-.41c-.24,0-.45.2-.45.45v1.94c.33-.01.76,0,1.31.03"/></g></svg>